<svg width="208" height="163" viewBox="0 0 208 163" fill="none" xmlns="http://www.w3.org/2000/svg">
<g style="mix-blend-mode:multiply">
<circle cx="8.5" cy="26.8203" r="5.5" fill="#EDEEF1"/>
</g>
<g style="mix-blend-mode:multiply">
<circle cx="11.5" cy="135.82" r="11.5" fill="#EDEEF1"/>
</g>
<g style="mix-blend-mode:multiply">
<circle cx="197" cy="52.3203" r="11" fill="#EDEEF1"/>
</g>
<path d="M94.6036 31.1217C92.027 28.545 88.5688 27.1211 84.975 27.1211H49.9188C42.46 27.1211 36.4251 33.2237 36.4251 40.6825L36.3573 122.051C36.3573 129.51 42.46 135.612 49.9188 135.612H158.41C165.869 135.612 171.972 129.51 171.972 122.051V54.2439C171.972 46.7852 165.869 40.6825 158.41 40.6825H104.164L94.6036 31.1217Z" fill="#B1B0B2"/>
<circle cx="103.72" cy="86.2614" r="28.4568" fill="#CCCCCC"/>
<path d="M106.758 97.8122H101.571V99.7575H106.758V97.8122ZM92.1685 88.41V83.2226H90.2232V88.41H92.1685ZM116.16 87.8433V88.41H118.106V87.8433H116.16ZM107.914 76.2338L113.048 80.8545L114.349 79.4072L109.216 74.7865L107.914 76.2338ZM118.106 87.8433C118.106 85.6529 118.125 84.2652 117.574 83.0255L115.796 83.8178C116.141 84.5934 116.16 85.4817 116.16 87.8433H118.106ZM113.048 80.8545C114.803 82.4341 115.451 83.0436 115.796 83.8178L117.574 83.0255C117.022 81.7844 115.978 80.8727 114.349 79.4072L113.048 80.8545ZM101.61 73.8204C103.661 73.8204 104.435 73.8359 105.124 74.1005L105.822 72.2849C104.717 71.8595 103.513 71.8751 101.61 71.8751V73.8204ZM109.216 74.7878C107.807 73.5208 106.927 72.7077 105.822 72.2849L105.125 74.1005C105.815 74.365 106.396 74.8682 107.914 76.2338L109.216 74.7878ZM101.571 97.8122C99.0976 97.8122 97.3417 97.8096 96.0072 97.6307C94.7039 97.4556 93.9517 97.1262 93.4031 96.5776L92.0285 97.9523C92.9985 98.9249 94.2292 99.3542 95.7491 99.5591C97.2405 99.7601 99.1534 99.7575 101.571 99.7575V97.8122ZM90.2232 88.41C90.2232 90.8273 90.2206 92.7389 90.4217 94.2316C90.6266 95.7515 91.0571 96.9822 92.0272 97.9536L93.4018 96.5789C92.8546 96.029 92.5252 95.2769 92.3501 93.9722C92.1711 92.6404 92.1685 90.8831 92.1685 88.41H90.2232ZM106.758 99.7575C109.176 99.7575 111.087 99.7601 112.58 99.5591C114.1 99.3542 115.33 98.9236 116.302 97.9536L114.927 96.5789C114.377 97.1262 113.625 97.4556 112.32 97.6307C110.989 97.8096 109.231 97.8122 106.758 97.8122V99.7575ZM116.16 88.41C116.16 90.8831 116.158 92.6404 115.979 93.9735C115.804 95.2769 115.474 96.029 114.926 96.5776L116.3 97.9523C117.273 96.9822 117.702 95.7515 117.907 94.2316C118.108 92.7402 118.106 90.8273 118.106 88.41H116.16ZM92.1685 83.2226C92.1685 80.7495 92.1711 78.9935 92.3501 77.6591C92.5252 76.3557 92.8546 75.6035 93.4031 75.055L92.0285 73.6803C91.0558 74.6503 90.6266 75.8811 90.4217 77.401C90.2206 78.8924 90.2232 80.8052 90.2232 83.2226H92.1685ZM101.61 71.8751C99.178 71.8751 97.2574 71.8725 95.7595 72.0735C94.2331 72.2784 92.9985 72.709 92.0272 73.679L93.4018 75.0537C93.9517 74.5064 94.7052 74.177 96.0176 74.0019C97.3573 73.823 99.1236 73.8204 101.61 73.8204V71.8751Z" fill="white"/>
<path opacity="0.5" d="M105.461 73.4961V76.7382C105.461 79.7949 105.461 81.3239 106.411 82.2732C107.36 83.2225 108.889 83.2225 111.946 83.2225H117.133" stroke="white" stroke-width="1.5"/>
<g style="mix-blend-mode:multiply">
<circle cx="158.5" cy="20.8203" r="4.5" fill="#EDEEF1"/>
</g>
</svg>
