<svg width="17" height="16" viewBox="0 0 17 16" fill="none" xmlns="http://www.w3.org/2000/svg">
<path d="M15.7563 6.36914C14.9125 5.52539 13.5625 5.52539 12.7188 6.36914L6.98126 12.1066C6.92501 12.1629 6.86876 12.2754 6.81251 12.3879L6.25001 15.2004C6.19376 15.3691 6.25001 15.5941 6.41876 15.7066C6.53126 15.8191 6.75626 15.8754 6.92501 15.8754L9.73751 15.3129C9.85001 15.3129 9.96251 15.2566 10.0188 15.1441L15.7563 9.40664C16.6 8.56289 16.6 7.21289 15.7563 6.36914ZM9.34376 14.2441L7.54376 14.5816L7.88126 12.7816L12.4375 8.22539L13.9 9.68789L9.34376 14.2441ZM14.9688 8.61914L14.6875 8.90039L13.225 7.43789L13.5063 7.15664C13.9 6.76289 14.575 6.76289 14.9688 7.15664C15.3625 7.55039 15.3625 8.22539 14.9688 8.61914Z" fill="#4C0C5F"/>
<path d="M9.79375 7.26875C10.0187 7.49375 10.3563 7.49375 10.5813 7.26875C10.8063 7.04375 10.8063 6.70625 10.5813 6.48125L9.45625 5.35625C9.23125 5.13125 8.89375 5.13125 8.66875 5.35625L5.6875 8.3375L4.39375 7.04375C4.16875 6.81875 3.83125 6.81875 3.60625 7.04375L1.75 8.9V1.8125C1.75 1.475 1.975 1.25 2.3125 1.25H12.4375C12.775 1.25 13 1.475 13 1.8125V4.0625C13 4.4 13.225 4.625 13.5625 4.625C13.9 4.625 14.125 4.4 14.125 4.0625V1.8125C14.125 0.85625 13.3938 0.125 12.4375 0.125H2.3125C1.35625 0.125 0.625 0.85625 0.625 1.8125V11.9375C0.625 12.8938 1.35625 13.625 2.3125 13.625H5.125C5.4625 13.625 5.6875 13.4 5.6875 13.0625C5.6875 12.725 5.4625 12.5 5.125 12.5H2.3125C1.975 12.5 1.75 12.275 1.75 11.9375V10.475L4 8.225L5.29375 9.51875C5.51875 9.74375 5.85625 9.74375 6.08125 9.51875L9.0625 6.5375L9.79375 7.26875Z" fill="#4C0C5F"/>
<path d="M4 4.0625C4 5.01875 4.73125 5.75 5.6875 5.75C6.64375 5.75 7.375 5.01875 7.375 4.0625C7.375 3.10625 6.64375 2.375 5.6875 2.375C4.73125 2.375 4 3.10625 4 4.0625ZM6.25 4.0625C6.25 4.4 6.025 4.625 5.6875 4.625C5.35 4.625 5.125 4.4 5.125 4.0625C5.125 3.725 5.35 3.5 5.6875 3.5C6.025 3.5 6.25 3.725 6.25 4.0625Z" fill="#4C0C5F"/>
</svg>
