<svg width="25" height="24" viewBox="0 0 25 24" fill="none" xmlns="http://www.w3.org/2000/svg">
<path fill-rule="evenodd" clip-rule="evenodd" d="M21.0299 4.53003C21.1624 4.38785 21.2345 4.19981 21.2311 4.00551C21.2277 3.81121 21.1489 3.62582 21.0115 3.48841C20.8741 3.35099 20.6887 3.27228 20.4944 3.26885C20.3001 3.26543 20.1121 3.33755 19.9699 3.47003L3.96991 19.47C3.89622 19.5387 3.83712 19.6215 3.79613 19.7135C3.75514 19.8055 3.73309 19.9048 3.73132 20.0055C3.72954 20.1062 3.74807 20.2062 3.78579 20.2996C3.82351 20.393 3.87965 20.4778 3.95087 20.5491C4.02209 20.6203 4.10692 20.6764 4.20031 20.7142C4.2937 20.7519 4.39373 20.7704 4.49443 20.7686C4.59513 20.7668 4.69445 20.7448 4.78645 20.7038C4.87845 20.6628 4.96125 20.6037 5.02991 20.53L7.87691 17.683C9.24391 18.327 10.8169 18.75 12.4999 18.75C15.1839 18.75 17.5899 17.673 19.3199 16.345C20.1869 15.68 20.9029 14.938 21.4089 14.209C21.9009 13.5 22.2499 12.723 22.2499 12C22.2499 11.277 21.8999 10.5 21.4089 9.79103C20.9029 9.06203 20.1869 8.32103 19.3209 7.65503C19.0579 7.45403 18.7809 7.25803 18.4889 7.07203L21.0299 4.53003ZM17.3999 8.16103L15.6289 9.93203C16.1064 10.6532 16.3199 11.5172 16.2333 12.3777C16.1467 13.2382 15.7654 14.0424 15.1538 14.6539C14.5423 15.2655 13.7381 15.6469 12.8776 15.7334C12.017 15.82 11.153 15.6065 10.4319 15.129L9.01491 16.545C10.1201 17.0032 11.3036 17.2426 12.4999 17.25C14.7869 17.25 16.8799 16.327 18.4069 15.155C19.1689 14.57 19.7709 13.937 20.1769 13.354C20.5959 12.75 20.7499 12.277 20.7499 12C20.7499 11.723 20.5959 11.25 20.1769 10.646C19.7709 10.063 19.1689 9.43003 18.4069 8.84503C18.0939 8.60503 17.7579 8.37503 17.3999 8.16103ZM11.5289 14.031C11.9488 14.2316 12.4205 14.297 12.8791 14.2183C13.3376 14.1396 13.7606 13.9207 14.0896 13.5917C14.4186 13.2627 14.6375 12.8398 14.7162 12.3812C14.7949 11.9226 14.7294 11.4509 14.5289 11.031L11.5289 14.031Z" fill="#969696"/>
<path d="M12.5 5.25C13.532 5.25 14.524 5.41 15.451 5.681C15.4916 5.69311 15.5283 5.71562 15.5575 5.74629C15.5867 5.77697 15.6074 5.81474 15.6175 5.85588C15.6276 5.89701 15.6268 5.94007 15.6151 5.98078C15.6035 6.0215 15.5814 6.05846 15.551 6.088L14.727 6.913C14.6964 6.94335 14.6586 6.96543 14.6172 6.97715C14.5757 6.98887 14.5319 6.98985 14.49 6.98C13.8375 6.82845 13.1699 6.75129 12.5 6.75C10.213 6.75 8.12 7.673 6.593 8.845C5.831 9.43 5.229 10.063 4.823 10.646C4.404 11.25 4.25 11.723 4.25 12C4.25 12.277 4.404 12.75 4.823 13.354C5.177 13.864 5.681 14.411 6.311 14.931C6.427 15.026 6.438 15.201 6.331 15.308L5.623 16.017C5.57964 16.061 5.52132 16.087 5.45962 16.09C5.39793 16.093 5.33738 16.0726 5.29 16.033C4.64617 15.5021 4.07494 14.8888 3.591 14.209C3.1 13.5 2.75 12.723 2.75 12C2.75 11.277 3.1 10.5 3.591 9.791C4.097 9.062 4.813 8.321 5.679 7.655C7.41 6.327 9.816 5.25 12.5 5.25Z" fill="#969696"/>
<path d="M12.5 8.25C12.618 8.25 12.736 8.255 12.851 8.266C13.048 8.285 13.119 8.52 12.98 8.66L11.767 9.872C11.444 9.98367 11.1506 10.1673 10.9089 10.4089C10.6672 10.6506 10.4836 10.944 10.372 11.267L9.15998 12.48C9.01998 12.62 8.78497 12.548 8.76597 12.351C8.71711 11.8312 8.77732 11.3069 8.94275 10.8117C9.10819 10.3166 9.3752 9.86137 9.7267 9.47532C10.0782 9.08928 10.5064 8.78089 10.984 8.56989C11.4615 8.35889 11.9779 8.24994 12.5 8.25Z" fill="#969696"/>
</svg>
