<svg width="24" height="25" viewBox="0 0 24 25" fill="none" xmlns="http://www.w3.org/2000/svg">
<g clip-path="url(#clip0_11067_2702)">
<path d="M10.5598 12.6646C13.9393 12.6644 15.1552 9.28067 15.4735 6.50114C15.8657 3.07706 14.2464 0.5 10.5598 0.5C6.87357 0.5 5.25354 3.07686 5.64597 6.50114C5.96459 9.28067 7.1802 12.6649 10.5598 12.6646Z" fill="white"/>
<path d="M17.9493 14.0731C18.058 14.0731 18.1661 14.0764 18.2733 14.0823C18.1125 13.8529 17.9264 13.6506 17.7085 13.4879C17.0592 13.0032 16.2181 12.8442 15.4746 12.5521C15.1127 12.4099 14.7886 12.2687 14.4844 12.1079C13.4576 13.234 12.1186 13.823 10.5593 13.8232C9.00049 13.8232 7.66158 13.2341 6.63488 12.1079C6.33064 12.2687 6.00649 12.4099 5.64464 12.5521C4.90115 12.8443 4.06017 13.0032 3.41076 13.4879C2.2877 14.3261 1.99747 16.2118 1.76943 17.4981C1.58123 18.5599 1.4548 19.6435 1.4179 20.722C1.38931 21.5574 1.80178 21.6745 2.50068 21.9267C3.37578 22.2423 4.27935 22.4767 5.189 22.6687C6.94574 23.0397 8.75656 23.3248 10.5596 23.3375C11.4332 23.3313 12.3086 23.2608 13.1789 23.148C12.5345 22.2144 12.1566 21.0835 12.1566 19.8658C12.1566 16.6717 14.7552 14.0731 17.9493 14.0731Z" fill="white"/>
<path d="M17.9493 15.2317C15.39 15.2317 13.3152 17.3066 13.3152 19.8658C13.3152 22.4251 15.39 24.5 17.9493 24.5C20.5087 24.5 22.5835 22.4251 22.5835 19.8658C22.5835 17.3065 20.5086 15.2317 17.9493 15.2317ZM19.9768 20.6609H18.7444V21.8932C18.7444 22.3324 18.3885 22.6884 17.9494 22.6884C17.5102 22.6884 17.1542 22.3324 17.1542 21.8932V20.6609H15.9219C15.4828 20.6609 15.1268 20.3049 15.1268 19.8658C15.1268 19.4266 15.4828 19.0706 15.9219 19.0706H17.1542V17.8383C17.1542 17.3992 17.5102 17.0432 17.9494 17.0432C18.3885 17.0432 18.7444 17.3992 18.7444 17.8383V19.0706H19.9768C20.4159 19.0706 20.7719 19.4266 20.7719 19.8658C20.7719 20.305 20.416 20.6609 19.9768 20.6609Z" fill="white"/>
</g>
<defs>
<clipPath id="clip0_11067_2702">
<rect width="24" height="24" fill="white" transform="translate(0 0.5)"/>
</clipPath>
</defs>
</svg>
