<svg width="24" height="24" viewBox="0 0 24 24" fill="none" xmlns="http://www.w3.org/2000/svg">
<path fill-rule="evenodd" clip-rule="evenodd" d="M13.6665 6.9945C13.3391 7.22149 12.9698 7.38099 12.5801 7.46372C12.1904 7.54644 11.7882 7.55072 11.3968 7.4763C11.0054 7.40189 10.6328 7.25027 10.3007 7.0303C9.96854 6.81033 9.68354 6.52641 9.4623 6.19511C9.24107 5.86381 9.08804 5.49176 9.01214 5.10069C8.93624 4.70961 8.93899 4.30733 9.02023 3.91732C9.10147 3.52732 9.25957 3.1574 9.48531 2.82915C9.71105 2.50091 9.9999 2.22091 10.335 2.0055C10.9966 1.56849 11.8044 1.41118 12.5816 1.56797C13.3589 1.72476 14.0425 2.18289 14.483 2.84222C14.9234 3.50154 15.085 4.30844 14.9323 5.08652C14.7796 5.8646 14.325 6.55057 13.668 6.9945H13.6665ZM12.834 3.2535C12.6707 3.13598 12.4853 3.05254 12.2891 3.00813C12.0928 2.96372 11.8896 2.95926 11.6916 2.99502C11.4935 3.03077 11.3047 3.106 11.1363 3.21624C10.968 3.32648 10.8235 3.46946 10.7116 3.63668C10.5996 3.8039 10.5225 3.99194 10.4847 4.18959C10.4469 4.38725 10.4493 4.59049 10.4917 4.7872C10.5341 4.98392 10.6157 5.17009 10.7315 5.33464C10.8474 5.49919 10.9951 5.63874 11.166 5.745C11.4962 5.94557 11.891 6.01102 12.2682 5.92772C12.6455 5.84441 12.976 5.61878 13.191 5.29782C13.406 4.97687 13.4889 4.58533 13.4224 4.20478C13.3559 3.82423 13.1451 3.48402 12.834 3.255V3.2535ZM16.749 3.2985C17.1816 3.0075 17.7022 2.87646 18.221 2.92793C18.7399 2.9794 19.2245 3.21017 19.5915 3.5805C19.853 3.84412 20.0459 4.16789 20.1531 4.5234C20.2604 4.87892 20.2787 5.25531 20.2066 5.61958C20.1345 5.98385 19.9741 6.32485 19.7395 6.61269C19.5049 6.90053 19.2033 7.1264 18.861 7.2705C18.4501 7.44276 17.997 7.48825 17.56 7.40112C17.123 7.31398 16.722 7.09821 16.4085 6.7815C16.1728 6.54453 15.9923 6.25837 15.88 5.9435C15.7678 5.62863 15.7265 5.29284 15.7592 4.96017C15.7919 4.62749 15.8977 4.30615 16.0691 4.01915C16.2405 3.73214 16.4732 3.48657 16.7505 3.3L16.749 3.2985ZM17.469 5.7135C17.6098 5.85373 17.8006 5.93228 17.9994 5.93186C18.0978 5.93165 18.1952 5.91206 18.286 5.87421C18.3768 5.83635 18.4593 5.78098 18.5288 5.71125C18.5982 5.64152 18.6532 5.55879 18.6907 5.4678C18.7282 5.3768 18.7473 5.27932 18.7471 5.18091C18.7469 5.0825 18.7273 4.9851 18.6895 4.89426C18.6516 4.80343 18.5963 4.72094 18.5265 4.6515C18.3877 4.50983 18.1984 4.42892 18 4.4265C17.9011 4.4265 17.8033 4.44605 17.712 4.48402C17.6207 4.52199 17.5378 4.57764 17.4681 4.64776C17.3984 4.71788 17.3432 4.80109 17.3058 4.89261C17.2684 4.98412 17.2494 5.08213 17.25 5.181C17.2494 5.28006 17.2685 5.37826 17.3061 5.46991C17.3437 5.56157 17.3991 5.64337 17.469 5.7135ZM4.78502 18.7305H7.50002V20.238H4.78502C4.30984 20.2332 3.85583 20.0407 3.52202 19.7025C3.35555 19.5347 3.22377 19.3357 3.13421 19.1169C3.04464 18.8982 2.99904 18.6639 3.00002 18.4275V15.7125C2.79811 15.7055 2.5997 15.6578 2.4167 15.5722C2.23369 15.4866 2.06985 15.365 1.93502 15.2145C1.79143 15.0699 1.6788 14.8976 1.60401 14.708C1.52922 14.5185 1.49384 14.3157 1.50002 14.112V10.839C1.50452 10.131 1.78502 9.4545 2.28002 8.952C2.77352 8.4555 3.44102 8.172 4.14002 8.1675H6.90002C6.52734 8.61059 6.24686 9.12361 6.07502 9.6765H4.14002C3.83565 9.68553 3.54609 9.80993 3.33002 10.0245C3.11836 10.2428 3 10.5349 3.00002 10.839V14.187H4.50002V18.426C4.49636 18.4669 4.50113 18.5081 4.51403 18.547C4.52693 18.586 4.54769 18.6219 4.57502 18.6525C4.63532 18.6991 4.70885 18.7254 4.78502 18.7275V18.7305ZM15.735 8.9535C15.4893 8.706 15.1973 8.50933 14.8756 8.37473C14.5538 8.24012 14.2088 8.17021 13.86 8.169H10.14C9.44091 8.17541 8.77255 8.4573 8.28002 8.9535C7.78502 9.456 7.50452 10.1325 7.50002 10.8405V15.6075C7.4979 16.0168 7.65371 16.4112 7.93502 16.7085C8.06985 16.859 8.23369 16.9806 8.4167 17.0662C8.5997 17.1518 8.79811 17.1995 9.00002 17.2065V20.691C8.99845 20.9289 9.04404 21.1647 9.13415 21.3848C9.22426 21.6049 9.35711 21.805 9.52502 21.9735C9.79502 22.2255 10.1355 22.389 10.5 22.4415H13.5C13.9219 22.3861 14.3085 22.1767 14.5854 21.8536C14.8622 21.5305 15.0099 21.1164 15 20.691V17.205C15.2019 17.198 15.4003 17.1503 15.5833 17.0647C15.7664 16.9791 15.9302 16.8575 16.065 16.707C16.2084 16.5626 16.3209 16.3905 16.3957 16.2012C16.4705 16.0119 16.506 15.8094 16.5 15.606V10.839C16.5011 10.1343 16.2265 9.45856 15.735 8.9535ZM15 15.681H13.5V20.691C13.4989 20.7701 13.4665 20.8456 13.41 20.901C13.3844 20.9313 13.3521 20.9552 13.3157 20.9708C13.2792 20.9865 13.2396 20.9934 13.2 20.991H10.785C10.7066 20.9873 10.6324 20.9546 10.5769 20.8991C10.5215 20.8436 10.4887 20.7694 10.485 20.691V15.681H9.00002V10.839C9.00002 10.5345 9.11852 10.242 9.33002 10.0245C9.54609 9.80993 9.83565 9.68553 10.14 9.6765H13.86C14.0872 9.68089 14.3081 9.75131 14.4959 9.87916C14.6837 10.007 14.8302 10.1868 14.9175 10.3965C14.9727 10.5375 15.0007 10.6876 15 10.839V15.681ZM19.215 20.2365H16.5V18.729H19.2C19.2762 18.7269 19.3497 18.7006 19.41 18.654C19.4402 18.6245 19.4639 18.5889 19.4794 18.5496C19.4949 18.5103 19.5019 18.4682 19.5 18.426V14.187H21V10.839C21 10.5349 20.8817 10.2428 20.67 10.0245C20.454 9.80993 20.1644 9.68553 19.86 9.6765H17.925C17.7532 9.12361 17.4727 8.61059 17.1 8.1675H19.86C20.5591 8.17391 21.2275 8.4558 21.72 8.952C22.215 9.4545 22.4955 10.131 22.5 10.839V14.112C22.5 14.5215 22.3455 14.9145 22.0665 15.2115C21.7875 15.51 21.4065 15.6885 21 15.711V18.426C21 18.9045 20.8125 19.362 20.478 19.701C20.1442 20.0392 19.6902 20.2317 19.215 20.2365ZM6.00002 2.9175C5.55348 2.91617 5.11678 3.04864 4.74622 3.29781C4.37567 3.54699 4.08825 3.90145 3.92102 4.3155C3.75215 4.72903 3.70848 5.18305 3.79541 5.62119C3.88235 6.05932 4.09606 6.46227 4.41002 6.78C4.72437 7.09704 5.12609 7.31318 5.56387 7.40081C6.00166 7.48844 6.45562 7.44357 6.86779 7.27195C7.27995 7.10032 7.63159 6.80972 7.8778 6.43728C8.124 6.06484 8.2536 5.62745 8.25002 5.181C8.25002 4.581 8.01302 4.005 7.59002 3.5805C7.38153 3.37097 7.1338 3.20456 6.86098 3.0908C6.58817 2.97704 6.29561 2.91815 6.00002 2.9175ZM6.00002 5.9355C5.90115 5.9355 5.80325 5.91596 5.71196 5.87798C5.62067 5.84001 5.53779 5.78436 5.46809 5.71424C5.39839 5.64412 5.34324 5.56091 5.30581 5.4694C5.26839 5.37788 5.24943 5.27987 5.25002 5.181C5.25041 4.98179 5.32941 4.79079 5.46985 4.64951C5.61029 4.50822 5.80082 4.42808 6.00002 4.4265C6.19849 4.43037 6.38769 4.51125 6.52764 4.65204C6.66759 4.79283 6.74733 4.98251 6.75002 5.181C6.74963 5.38021 6.67063 5.57121 6.53019 5.7125C6.38975 5.85378 6.19922 5.93392 6.00002 5.9355Z" fill="white"/>
</svg>
