<svg width="24" height="25" viewBox="0 0 24 25" fill="none" xmlns="http://www.w3.org/2000/svg">
<g clip-path="url(#clip0_11067_2690)">
<path d="M6.32812 17.4688H0.703125C0.314812 17.4688 0 17.7836 0 18.1719V23.7969C0 24.1852 0.314812 24.5 0.703125 24.5H6.32812C6.71644 24.5 7.03125 24.1852 7.03125 23.7969V18.1719C7.03125 17.7836 6.71644 17.4688 6.32812 17.4688Z" fill="white"/>
<path d="M4.21875 16.0625V14.1406H11.2969V16.0625H12.7031V14.1406H19.7812V16.0625H21.1875V13.4375C21.1875 13.0492 20.8727 12.7344 20.4844 12.7344H12.7031V10.8125H11.2969V12.7344H3.51562C3.12731 12.7344 2.8125 13.0492 2.8125 13.4375V16.0625H4.21875Z" fill="white"/>
<path d="M8.25 9.40625H15.75C16.1383 9.40625 16.4531 9.09144 16.4531 8.70312V1.20312C16.4531 0.814812 16.1383 0.5 15.75 0.5H8.25C7.86169 0.5 7.54688 0.814812 7.54688 1.20312V8.70312C7.54688 9.09144 7.86169 9.40625 8.25 9.40625Z" fill="white"/>
<path d="M14.8125 17.4688H9.1875C8.79919 17.4688 8.48438 17.7836 8.48438 18.1719V23.7969C8.48438 24.1852 8.79919 24.5 9.1875 24.5H14.8125C15.2008 24.5 15.5156 24.1852 15.5156 23.7969V18.1719C15.5156 17.7836 15.2008 17.4688 14.8125 17.4688Z" fill="white"/>
<path d="M23.2969 17.4688H17.6719C17.2836 17.4688 16.9688 17.7836 16.9688 18.1719V23.7969C16.9688 24.1852 17.2836 24.5 17.6719 24.5H23.2969C23.6852 24.5 24 24.1852 24 23.7969V18.1719C24 17.7836 23.6852 17.4688 23.2969 17.4688Z" fill="white"/>
</g>
<defs>
<clipPath id="clip0_11067_2690">
<rect width="24" height="24" fill="white" transform="translate(0 0.5)"/>
</clipPath>
</defs>
</svg>
