<svg width="35" height="35" viewBox="0 0 35 35" fill="none" xmlns="http://www.w3.org/2000/svg">
<g clip-path="url(#clip0_11026_17219)">
<path d="M32.9996 11.7309V30.3435C32.9996 31.8109 31.8105 33 30.3436 33H9.49773C8.03096 33 6.8418 31.8109 6.8418 30.3435V5.65676C6.8418 4.18934 8.0309 3.00024 9.49773 3.00024H24.2695C25.1495 3.00024 25.994 3.35033 26.6169 3.97266L32.0271 9.38291C32.6501 10.0058 32.9996 10.8503 32.9996 11.7309Z" fill="#F1F4F6"/>
<path d="M28.5107 18.2729H20.1578C19.9078 18.2729 19.7051 18.0703 19.7051 17.8202C19.7051 17.5702 19.9078 17.3675 20.1578 17.3675H28.5107C28.7607 17.3675 28.9634 17.5702 28.9634 17.8202C28.9634 18.0703 28.7607 18.2729 28.5107 18.2729Z" fill="#A3B8BF"/>
<path d="M28.5105 21.2596H20.7564C20.5064 21.2596 20.3037 21.0569 20.3037 20.8069C20.3037 20.5569 20.5064 20.3542 20.7564 20.3542H28.5105C28.7605 20.3542 28.9632 20.5569 28.9632 20.8069C28.9632 21.0569 28.7605 21.2596 28.5105 21.2596Z" fill="#A3B8BF"/>
<path d="M28.5105 24.2463H20.7564C20.5064 24.2463 20.3037 24.0437 20.3037 23.7936C20.3037 23.5436 20.5064 23.3409 20.7564 23.3409H28.5105C28.7605 23.3409 28.9632 23.5436 28.9632 23.7936C28.9632 24.0437 28.7605 24.2463 28.5105 24.2463Z" fill="#A3B8BF"/>
<path d="M22.3584 21.2222V27.3115C22.3584 28.7173 21.2187 29.8569 19.8129 29.8569H6.8418V18.6762H19.8129C21.2187 18.6762 22.3584 19.8158 22.3584 21.2222Z" fill="#D4E1E6"/>
<path d="M11.4051 32.9998H9.49832C8.0309 32.9998 6.8418 31.8107 6.8418 30.3432V5.65652C6.8418 4.1891 8.0309 3 9.49832 3H11.4051C9.93836 3 8.7492 4.1891 8.7492 5.65652V30.3432C8.7492 31.8107 9.93836 32.9998 11.4051 32.9998Z" fill="#D4E1E6"/>
<path d="M32.9996 11.7312V12.2979C32.9996 11.2253 32.1298 10.3555 31.0572 10.3555H28.3005C26.8337 10.3555 25.6446 9.16641 25.6446 7.69963V4.94297C25.6446 3.87035 24.7748 3.00053 23.7021 3.00053H24.2689C25.1496 3.00053 25.994 3.35062 26.617 3.97295L32.0272 9.38314C32.6495 10.0061 32.9996 10.8505 32.9996 11.7312Z" fill="#D4E1E6"/>
<path d="M20.6255 16.9147H5.54578C4.13977 16.9147 3 18.0545 3 19.4605V25.5499C3 26.9559 4.13977 28.0957 5.54578 28.0957H20.6255C22.0315 28.0957 23.1712 26.9559 23.1712 25.5499V19.4606C23.1712 18.0546 22.0315 16.9147 20.6255 16.9147Z" fill="#DD636E"/>
<path d="M8.14945 28.0959H5.54543C4.13959 28.0959 3 26.9562 3 25.5498V19.4606C3 18.0547 4.13965 16.9145 5.54543 16.9145H8.14945C6.74361 16.9145 5.60338 18.0547 5.60338 19.4606V25.5499C5.60338 26.9563 6.74361 28.0959 8.14945 28.0959Z" fill="#DA4A54"/>
<path d="M19.2097 20.193C19.4597 20.193 19.6624 19.9903 19.6624 19.7403C19.6624 19.4903 19.4597 19.2876 19.2097 19.2876H16.9517C16.7017 19.2876 16.499 19.4903 16.499 19.7403V25.3114C16.499 25.5614 16.7017 25.7641 16.9517 25.7641C17.2017 25.7641 17.4044 25.5614 17.4044 25.3114V22.9258H19.0303C19.2803 22.9258 19.483 22.7231 19.483 22.4731C19.483 22.2231 19.2803 22.0204 19.0303 22.0204H17.4044V20.193H19.2097V20.193Z" fill="#F1F4F6"/>
<path d="M13.0831 19.4125H11.5406C11.4204 19.4125 11.3051 19.4603 11.2202 19.5454C11.1352 19.6304 11.0877 19.7458 11.0879 19.866C11.0879 19.866 11.0918 21.9612 11.0918 22.5823C11.0918 23.3309 11.0988 25.2932 11.0989 25.313C11.0994 25.433 11.1474 25.548 11.2327 25.6327C11.3175 25.7169 11.4321 25.7641 11.5516 25.7641H11.5533C11.5998 25.7639 12.6982 25.7597 13.1361 25.752C13.9035 25.7386 14.5868 25.391 15.0601 24.7732C15.4954 24.2051 15.7351 23.4292 15.7351 22.5882C15.7351 20.6887 14.6693 19.4125 13.0831 19.4125ZM13.1203 24.8467C12.8658 24.8511 12.3696 24.8545 12.0028 24.8565C12.0007 24.2268 11.9973 23.1061 11.9973 22.5823C11.9973 22.1437 11.9953 20.9704 11.9942 20.3179H13.0831C13.9275 20.3179 14.8297 20.9143 14.8297 22.5882C14.8297 23.9004 14.1267 24.8291 13.1203 24.8467Z" fill="#F1F4F6"/>
<path d="M8.52516 19.2465H6.96246C6.84217 19.2465 6.72674 19.2943 6.64184 19.3796C6.55688 19.4648 6.50936 19.5803 6.50977 19.7006V25.3113C6.50977 25.5613 6.71244 25.764 6.96246 25.764C7.21248 25.764 7.41516 25.5613 7.41516 25.3113V23.3238C7.77739 23.3218 8.27151 23.3194 8.5251 23.3194C9.6651 23.3194 10.5926 22.4059 10.5926 21.2829C10.5926 20.16 9.66516 19.2465 8.52516 19.2465ZM8.52516 22.414C8.27285 22.414 7.78559 22.4164 7.42354 22.4183C7.42155 22.0464 7.41768 20.5388 7.41657 20.1519H8.52516C9.1551 20.1519 9.68725 20.6699 9.68725 21.2829C9.68719 21.896 9.15504 22.414 8.52516 22.414Z" fill="#F1F4F6"/>
<path d="M28.5099 15.2862H11.3306C11.0806 15.2862 10.8779 15.0835 10.8779 14.8335C10.8779 14.5835 11.0806 14.3808 11.3306 14.3808H28.5098C28.7599 14.3808 28.9625 14.5835 28.9625 14.8335C28.9625 15.0835 28.7599 15.2862 28.5099 15.2862Z" fill="#A3B8BF"/>
<path d="M23.7018 12.2995H11.3306C11.0806 12.2995 10.8779 12.0969 10.8779 11.8468C10.8779 11.5968 11.0806 11.3941 11.3306 11.3941H23.7018C23.9518 11.3941 24.1545 11.5968 24.1545 11.8468C24.1545 12.0969 23.9518 12.2995 23.7018 12.2995Z" fill="#A3B8BF"/>
</g>
<defs>
<clipPath id="clip0_11026_17219">
<rect width="30" height="30" fill="white" transform="translate(3 3)"/>
</clipPath>
</defs>
</svg>
