<svg width="21" height="14" viewBox="0 0 21 14" fill="none" xmlns="http://www.w3.org/2000/svg">
<path fill-rule="evenodd" clip-rule="evenodd" d="M6.75 7C6.75 6.00544 7.14509 5.05161 7.84835 4.34835C8.55161 3.64509 9.50544 3.25 10.5 3.25C11.4946 3.25 12.4484 3.64509 13.1517 4.34835C13.8549 5.05161 14.25 6.00544 14.25 7C14.25 7.99456 13.8549 8.94839 13.1517 9.65165C12.4484 10.3549 11.4946 10.75 10.5 10.75C9.50544 10.75 8.55161 10.3549 7.84835 9.65165C7.14509 8.94839 6.75 7.99456 6.75 7ZM10.5 4.75C9.90326 4.75 9.33097 4.98705 8.90901 5.40901C8.48705 5.83097 8.25 6.40326 8.25 7C8.25 7.59674 8.48705 8.16903 8.90901 8.59099C9.33097 9.01295 9.90326 9.25 10.5 9.25C11.0967 9.25 11.669 9.01295 12.091 8.59099C12.5129 8.16903 12.75 7.59674 12.75 7C12.75 6.40326 12.5129 5.83097 12.091 5.40901C11.669 4.98705 11.0967 4.75 10.5 4.75Z" fill="#969696"/>
<path fill-rule="evenodd" clip-rule="evenodd" d="M2.823 5.646C2.404 6.25 2.25 6.723 2.25 7C2.25 7.277 2.404 7.75 2.823 8.354C3.229 8.937 3.831 9.57 4.593 10.155C6.12 11.327 8.213 12.25 10.5 12.25C12.787 12.25 14.88 11.327 16.407 10.155C17.169 9.57 17.771 8.937 18.177 8.354C18.596 7.75 18.75 7.277 18.75 7C18.75 6.723 18.596 6.25 18.177 5.646C17.771 5.063 17.169 4.43 16.407 3.845C14.88 2.673 12.787 1.75 10.5 1.75C8.213 1.75 6.12 2.673 4.593 3.845C3.831 4.43 3.229 5.063 2.823 5.646ZM3.679 2.655C5.41 1.327 7.816 0.25 10.5 0.25C13.184 0.25 15.59 1.327 17.32 2.655C18.187 3.32 18.903 4.062 19.409 4.791C19.901 5.5 20.25 6.277 20.25 7C20.25 7.723 19.9 8.5 19.409 9.209C18.903 9.938 18.187 10.679 17.321 11.345C15.591 12.673 13.184 13.75 10.5 13.75C7.816 13.75 5.41 12.673 3.68 11.345C2.813 10.68 2.097 9.938 1.591 9.209C1.1 8.5 0.75 7.723 0.75 7C0.75 6.277 1.1 5.5 1.591 4.791C2.097 4.062 2.813 3.321 3.679 2.655Z" fill="#969696"/>
</svg>
