<svg width="21" height="21" viewBox="0 0 21 21" fill="none" xmlns="http://www.w3.org/2000/svg">
<path d="M2.83946 5.31758C3.38844 4.93387 4.21599 5.00746 4.70891 5.41452L4.14358 4.59281C3.68862 3.94396 3.85157 3.24197 4.501 2.78643C5.15043 2.33265 6.99067 3.55267 6.99067 3.55267C6.53163 2.8974 6.61748 2.06692 7.27275 1.6073C7.92802 1.14942 8.83209 1.30769 9.29113 1.96413L15.3766 10.5609L14.601 18.0802L8.12834 15.7196L2.48262 7.3488C2.01949 6.68944 2.17952 5.78012 2.83946 5.31758Z" fill="#EF9645"/>
<path d="M1.5746 10.1006C1.5746 10.1006 0.913492 9.13697 1.87771 8.47644C2.84076 7.81592 3.50128 8.77896 3.50128 8.77896L6.56797 13.2514C6.67368 13.075 6.78932 12.901 6.91839 12.7293L2.66205 6.5229C2.66205 6.5229 2.00152 5.55985 2.96515 4.89932C3.9282 4.23879 4.58873 5.20184 4.58873 5.20184L8.59219 11.0403C8.74111 10.9188 8.89354 10.7968 9.05064 10.677L4.40944 3.90765C4.40944 3.90765 3.74891 2.94461 4.71254 2.28408C5.67559 1.62355 6.33612 2.5866 6.33612 2.5866L10.9773 9.35481C11.1479 9.25027 11.3166 9.15975 11.486 9.06397L7.14791 2.73786C7.14791 2.73786 6.48738 1.77481 7.45043 1.11429C8.41348 0.45376 9.074 1.41681 9.074 1.41681L13.6609 8.10617L14.3582 9.12354C11.4685 11.1057 11.1934 14.8347 12.8444 17.2426C13.1744 17.7244 13.6562 17.3944 13.6562 17.3944C11.6746 14.5041 12.2797 11.2564 15.17 9.2748L14.3179 5.01028C14.3179 5.01028 13.9996 3.88663 15.1227 3.56775C16.2464 3.24946 16.5652 4.37312 16.5652 4.37312L17.5493 7.29555C17.9394 8.45425 18.3547 9.60886 18.9042 10.701C20.456 13.7846 19.5291 17.6169 16.6032 19.6242C13.4115 21.8125 9.04831 20.999 6.8594 17.8079L1.5746 10.1006Z" fill="#FFDC5D"/>
<path d="M7.00926 18.6889C4.67318 18.6889 2.31257 16.3283 2.31257 13.9922C2.31257 13.6693 2.07604 13.4082 1.75308 13.4082C1.43012 13.4082 1.14453 13.6693 1.14453 13.9922C1.14453 17.4963 3.50514 19.857 7.00926 19.857C7.33222 19.857 7.59328 19.5714 7.59328 19.2484C7.59328 18.9254 7.33222 18.6889 7.00926 18.6889Z" fill="#5DADEC"/>
<path d="M4.08814 19.8312C2.33608 19.8312 1.16804 18.6632 1.16804 16.9111C1.16804 16.5882 0.906983 16.3271 0.58402 16.3271C0.261057 16.3271 0 16.5882 0 16.9111C0 19.2472 1.75206 20.9993 4.08814 20.9993C4.4111 20.9993 4.67216 20.7382 4.67216 20.4152C4.67216 20.0923 4.4111 19.8312 4.08814 19.8312ZM14.0165 1.14258C13.6941 1.14258 13.4325 1.40422 13.4325 1.7266C13.4325 2.04898 13.6941 2.31062 14.0165 2.31062C16.3526 2.31062 18.6886 4.40667 18.6886 6.98278C18.6886 7.30516 18.9503 7.5668 19.2727 7.5668C19.595 7.5668 19.8567 7.30516 19.8567 6.98278C19.8567 3.76249 17.5206 1.14258 14.0165 1.14258Z" fill="#5DADEC"/>
<path d="M16.9366 0C16.6142 0 16.3525 0.237112 16.3525 0.559491C16.3525 0.88187 16.6142 1.16804 16.9366 1.16804C18.6886 1.16804 19.8321 2.46748 19.8321 4.06361C19.8321 4.38599 20.1177 4.64763 20.4407 4.64763C20.7636 4.64763 21.0002 4.38599 21.0002 4.06361C21.0002 1.82273 19.2726 0 16.9366 0Z" fill="#5DADEC"/>
</svg>
