<svg width="5" height="15" viewBox="0 0 5 15" fill="none" xmlns="http://www.w3.org/2000/svg">
<path d="M2.5 8.33301C2.96024 8.33301 3.33333 7.95991 3.33333 7.49967C3.33333 7.03944 2.96024 6.66634 2.5 6.66634C2.03976 6.66634 1.66667 7.03944 1.66667 7.49967C1.66667 7.95991 2.03976 8.33301 2.5 8.33301Z" stroke="#98A2B3" stroke-width="1.66667" stroke-linecap="round" stroke-linejoin="round"/>
<path d="M2.5 2.49967C2.96024 2.49967 3.33333 2.12658 3.33333 1.66634C3.33333 1.2061 2.96024 0.833008 2.5 0.833008C2.03976 0.833008 1.66667 1.2061 1.66667 1.66634C1.66667 2.12658 2.03976 2.49967 2.5 2.49967Z" stroke="#98A2B3" stroke-width="1.66667" stroke-linecap="round" stroke-linejoin="round"/>
<path d="M2.5 14.1663C2.96024 14.1663 3.33333 13.7932 3.33333 13.333C3.33333 12.8728 2.96024 12.4997 2.5 12.4997C2.03976 12.4997 1.66667 12.8728 1.66667 13.333C1.66667 13.7932 2.03976 14.1663 2.5 14.1663Z" stroke="#98A2B3" stroke-width="1.66667" stroke-linecap="round" stroke-linejoin="round"/>
</svg>
