<svg width="4" height="7" viewBox="0 0 4 7" fill="none" xmlns="http://www.w3.org/2000/svg">
<path d="M3.89 3.55036C3.96035 3.4801 3.99991 3.38478 4 3.28536V3.09536C3.99885 2.99615 3.95944 2.90122 3.89 2.83036L1.32 0.265356C1.27306 0.218028 1.20916 0.191406 1.1425 0.191406C1.07584 0.191406 1.01194 0.218028 0.965 0.265356L0.61 0.620356C0.562968 0.666438 0.536464 0.729511 0.536464 0.795356C0.536464 0.861201 0.562968 0.924274 0.61 0.970356L2.835 3.19036L0.61 5.41036C0.562672 5.4573 0.53605 5.5212 0.53605 5.58786C0.53605 5.65452 0.562672 5.71841 0.61 5.76536L0.965 6.11536C1.01194 6.16268 1.07584 6.18931 1.1425 6.18931C1.20916 6.18931 1.27306 6.16268 1.32 6.11536L3.89 3.55036Z" fill="#4C0C5F"/>
</svg>
