<svg width="20" height="21" viewBox="0 0 20 21" fill="none" xmlns="http://www.w3.org/2000/svg">
<path d="M18.811 12.2398C19.3682 11.7689 20 11.2354 20 10.4996C20 9.76384 19.368 9.23055 18.8113 8.7597C18.4581 8.46136 18.0931 8.15402 18.0099 7.89696C17.9196 7.61858 18.0362 7.13801 18.1482 6.67372C18.3244 5.94559 18.5066 5.19292 18.0903 4.61964C17.6689 4.04213 16.8578 3.98076 16.1415 3.9268C15.6675 3.891 15.18 3.85413 14.9491 3.68609C14.7239 3.52202 14.5401 3.073 14.3628 2.63852C14.089 1.96859 13.7788 1.20935 13.0909 0.98606C12.4278 0.77063 11.7742 1.17253 11.1437 1.56171C10.7308 1.8156 10.3037 2.07865 10 2.07865C9.69634 2.07865 9.26921 1.81532 8.85605 1.56171C8.22402 1.17248 7.57201 0.771648 6.90915 0.98606C6.22101 1.20935 5.91107 1.96836 5.63744 2.63829C5.45968 3.07283 5.27637 3.52207 5.05099 3.68615C4.82006 3.85418 4.33128 3.89106 3.85857 3.92686C3.14226 3.97952 2.33116 4.04218 1.9098 4.61998C1.49348 5.19195 1.67571 5.94463 1.85189 6.67406C1.9641 7.13835 2.08049 7.61892 1.99011 7.8973C1.90692 8.15329 1.54246 8.46192 1.18902 8.76004C0.631472 9.23077 0 9.76429 0 10.4998C0 11.2354 0.632038 11.7692 1.18902 12.24C1.54189 12.5381 1.90692 12.8457 1.99011 13.1025C2.08044 13.3811 1.96376 13.8614 1.85189 14.3257C1.67571 15.0538 1.49348 15.8065 1.9098 16.3798C2.33116 16.9576 3.14226 17.019 3.85857 17.0729C4.33258 17.1087 4.82029 17.1459 5.05127 17.3136C5.27643 17.4777 5.45996 17.9267 5.6375 18.3615C5.91135 19.0314 6.22135 19.7904 6.90943 20.0139C7.03318 20.0541 7.16247 20.0745 7.29262 20.0742C7.82353 20.0742 8.34601 19.7519 8.85634 19.4385C9.26955 19.1841 9.69668 18.9211 10.0003 18.9211C10.3039 18.9211 10.7311 19.1844 11.1442 19.4385C11.7763 19.827 12.4288 20.2286 13.0908 20.0139C13.779 19.7904 14.0892 19.0314 14.3628 18.3615C14.5403 17.9269 14.7239 17.4777 14.9492 17.3136C15.1799 17.1459 15.6687 17.109 16.1411 17.0732C16.8577 17.0205 17.6699 16.9579 18.0899 16.3801C18.5062 15.8078 18.324 15.0554 18.1481 14.326C18.0357 13.8615 17.9195 13.3811 18.0098 13.1027C18.0931 12.8465 18.4581 12.5378 18.811 12.2398ZM17.1345 12.8178C16.9636 13.3445 17.1111 13.9533 17.2536 14.5427C17.3745 15.0431 17.5117 15.6087 17.346 15.8363C17.1764 16.0691 16.5902 16.1133 16.073 16.1523C15.4721 16.1978 14.8505 16.2444 14.4081 16.5665C13.9707 16.8846 13.7369 17.4574 13.5107 18.0109C13.3129 18.4952 13.0893 19.044 12.8073 19.1357C12.5505 19.2179 12.0604 18.9177 11.6285 18.6517C11.104 18.3301 10.5646 17.997 10 17.997C9.43538 17.997 8.89395 18.3293 8.37282 18.6512C7.94094 18.9172 7.45109 19.2171 7.19381 19.1352C6.91254 19.0436 6.68846 18.4947 6.49039 18.0104C6.26444 17.4574 6.03035 16.8841 5.59315 16.566C5.15076 16.2439 4.52895 16.1973 3.92774 16.1515C3.4108 16.1122 2.82457 16.0683 2.65501 15.8355C2.48964 15.6077 2.62685 15.0415 2.74771 14.5416C2.89018 13.9523 3.0374 13.3432 2.86677 12.817C2.70246 12.3112 2.23473 11.9167 1.7839 11.5351C1.37991 11.1927 0.921729 10.8067 0.921729 10.4988C0.921729 10.191 1.37968 9.8041 1.78368 9.46283C2.23529 9.08123 2.70246 8.68674 2.86682 8.1806C3.03774 7.65393 2.89024 7.04531 2.74777 6.4562C2.6269 5.95583 2.48969 5.38991 2.65507 5.16237C2.82469 4.92958 3.41086 4.88535 3.9278 4.84638C4.52901 4.8008 5.15076 4.75419 5.59321 4.43187C6.03035 4.11373 6.2645 3.54125 6.49045 2.98771C6.68846 2.5034 6.91181 1.95434 7.19409 1.86294C7.22593 1.85315 7.25902 1.84835 7.29233 1.84874C7.56409 1.84874 7.991 2.11208 8.37203 2.34696C8.89423 2.6685 9.43436 3.00083 9.99898 3.00083C10.5636 3.00083 11.104 2.67031 11.627 2.34747C12.0588 2.08125 12.5468 1.78076 12.8062 1.86345C13.0872 1.95485 13.3115 2.50391 13.5096 2.98816C13.7358 3.54119 13.9697 4.11424 14.4068 4.43232C14.8492 4.75465 15.471 4.80102 16.0723 4.84684C16.5892 4.88609 17.1754 4.93032 17.345 5.16283C17.5104 5.39064 17.3734 5.95679 17.2523 6.45688C17.1098 7.04599 16.9626 7.65512 17.1332 8.18128C17.2975 8.68742 17.7653 9.08191 18.2164 9.46351C18.6204 9.80586 19.0783 10.1916 19.0783 10.4995C19.0783 10.8073 18.6204 11.1942 18.2162 11.5357C17.7644 11.9174 17.2975 12.3119 17.1345 12.8178Z" fill="url(#paint0_linear_9902_7778)"/>
<path d="M12.1122 7.60214L9.16591 10.5484L7.88814 9.27067C7.29649 8.67929 6.33749 8.67952 5.74612 9.27117C5.15474 9.86283 5.15497 10.8218 5.74662 11.4132L8.09515 13.7617C8.68658 14.353 9.64524 14.353 10.2367 13.7617L14.2537 9.74332C14.8494 9.15642 14.8566 8.19764 14.2697 7.60192C13.6827 7.00619 12.724 6.99901 12.1283 7.58597C12.1229 7.5914 12.1175 7.59677 12.1122 7.60214ZM13.6019 9.09166L9.58489 13.1087C9.35063 13.3331 8.98119 13.3331 8.74692 13.1087L6.39818 10.76C6.16691 10.5286 6.16702 10.1535 6.39846 9.92227C6.62984 9.69101 7.00493 9.69112 7.23614 9.92256L8.8394 11.526C9.01937 11.7058 9.31098 11.7058 9.49089 11.526L12.7632 8.25318C12.9905 8.01779 13.3656 8.01117 13.6011 8.23848C13.8365 8.46579 13.8431 8.84088 13.6158 9.07633C13.611 9.08125 13.6062 9.08612 13.6012 9.09092L13.6019 9.09166Z" fill="url(#paint1_linear_9902_7778)"/>
<defs>
<linearGradient id="paint0_linear_9902_7778" x1="2.11806" y1="2.96404" x2="14.407" y2="15.897" gradientUnits="userSpaceOnUse">
<stop stop-color="#7D99B4"/>
<stop offset="0.350886" stop-color="#5690C6" stop-opacity="0.9"/>
<stop offset="0.634147" stop-color="#0052B4" stop-opacity="0.46"/>
<stop offset="1" stop-color="#65107F" stop-opacity="0.53"/>
</linearGradient>
<linearGradient id="paint1_linear_9902_7778" x1="6.29849" y1="7.90134" x2="10.6418" y2="13.734" gradientUnits="userSpaceOnUse">
<stop stop-color="#7D99B4"/>
<stop offset="0.350886" stop-color="#5690C6" stop-opacity="0.9"/>
<stop offset="0.634147" stop-color="#0052B4" stop-opacity="0.46"/>
<stop offset="1" stop-color="#65107F" stop-opacity="0.53"/>
</linearGradient>
</defs>
</svg>
