<svg width="157" height="159" viewBox="0 0 157 159" fill="none" xmlns="http://www.w3.org/2000/svg">
<path d="M3.05029 142.409C3.05029 142.409 13.6473 131.144 17.5253 127.022" stroke="#4C0C5F" stroke-width="5" stroke-linecap="round" stroke-linejoin="round"/>
<path d="M109.175 156.284C109.175 156.284 120.189 144.936 124.22 140.783" stroke="#4C0C5F" stroke-width="5" stroke-linecap="round" stroke-linejoin="round"/>
<path d="M88.9253 18.159C88.9253 18.159 100.19 7.061 104.312 3" stroke="#4C0C5F" stroke-width="5" stroke-linecap="round" stroke-linejoin="round"/>
<path d="M16.6753 51.2842C16.6753 51.2842 28.0233 40.1032 32.1763 36.0112" stroke="#E8DBEC" stroke-width="5" stroke-linecap="round" stroke-linejoin="round"/>
<path d="M138.675 69.034C138.675 69.034 149.439 58.103 153.378 54.103" stroke="#E8DBEC" stroke-width="5" stroke-linecap="round" stroke-linejoin="round"/>
<path d="M24.4605 88.5361C26.0307 88.5361 27.3057 89.8111 27.3057 91.3814C27.3057 92.9516 26.0307 94.2266 24.4605 94.2266C22.8902 94.2266 21.6152 92.9516 21.6152 91.3814C21.6152 89.8111 22.8902 88.5361 24.4605 88.5361Z" fill="#65107F"/>
<path d="M24.4605 88.5361C26.0307 88.5361 27.3057 89.8111 27.3057 91.3814C27.3057 92.9516 26.0307 94.2266 24.4605 94.2266C22.8902 94.2266 21.6152 92.9516 21.6152 91.3814C21.6152 89.8111 22.8902 88.5361 24.4605 88.5361Z" stroke="#4C0C5F" stroke-width="0.46447"/>
<path d="M41.8945 11.8032C43.4879 11.8032 44.7817 13.097 44.7817 14.6904C44.7817 16.2838 43.4879 17.5776 41.8945 17.5776C40.3011 17.5776 39.0073 16.2838 39.0073 14.6904C39.0073 13.097 40.3011 11.8032 41.8945 11.8032Z" fill="#E8DBEC"/>
<path d="M154.259 130.99C155.192 130.99 155.95 131.747 155.95 132.68C155.95 133.613 155.192 134.371 154.259 134.371C153.326 134.371 152.569 133.613 152.569 132.68C152.569 131.747 153.326 130.99 154.259 130.99Z" fill="#65107F"/>
<path d="M154.259 130.99C155.192 130.99 155.95 131.747 155.95 132.68C155.95 133.613 155.192 134.371 154.259 134.371C153.326 134.371 152.569 133.613 152.569 132.68C152.569 131.747 153.326 130.99 154.259 130.99Z" stroke="#4C0C5F" stroke-width="0.46447"/>
<g clip-path="url(#clip0_9131_1796)">
<path d="M114.294 86.9591C116.523 85.0758 119.05 82.9415 119.05 79.9984C119.05 77.0553 116.522 74.9222 114.295 73.0388C112.883 71.8454 111.423 70.6161 111.09 69.5879C110.729 68.4743 111.195 66.552 111.643 64.6949C112.348 61.7824 113.077 58.7717 111.411 56.4786C109.726 54.1685 106.481 53.923 103.616 53.7072C101.72 53.564 99.7703 53.4165 98.8466 52.7444C97.9459 52.0881 97.2107 50.292 96.5017 48.5541C95.4062 45.8744 94.1654 42.8374 91.4139 41.9442C88.7616 41.0825 86.147 42.6901 83.6252 44.2468C81.9734 45.2624 80.2649 46.3146 79.0503 46.3146C77.8357 46.3146 76.1271 45.2613 74.4745 44.2468C71.9464 42.6899 69.3383 41.0866 66.6869 41.9442C63.9343 42.8374 62.6946 45.8735 61.6 48.5532C60.889 50.2913 60.1558 52.0883 59.2542 52.7446C58.3305 53.4167 56.3754 53.5642 54.4846 53.7074C51.6193 53.9181 48.3749 54.1687 46.6895 56.4799C45.0242 58.7678 45.7531 61.7785 46.4578 64.6962C46.9067 66.5534 47.3723 68.4757 47.0107 69.5892C46.678 70.6131 45.2201 71.8477 43.8064 73.0402C41.5762 74.9231 39.0503 77.0572 39.0503 79.9993C39.0503 82.9415 41.5784 85.0767 43.8064 86.96C45.2179 88.1525 46.678 89.3828 47.0107 90.4099C47.372 91.5243 46.9053 93.4457 46.4578 95.3028C45.7531 98.2154 45.0242 101.226 46.6895 103.519C48.3749 105.83 51.6193 106.076 54.4846 106.292C56.3806 106.435 58.3314 106.583 59.2554 107.254C60.156 107.911 60.8901 109.707 61.6003 111.446C62.6957 114.126 63.9357 117.161 66.688 118.056C67.183 118.217 67.7002 118.298 68.2208 118.297C70.3444 118.297 72.4343 117.008 74.4756 115.754C76.1285 114.736 77.837 113.684 79.0514 113.684C80.2658 113.684 81.9746 114.738 83.6272 115.754C86.1554 117.308 88.7656 118.914 91.4137 118.056C94.1663 117.161 95.4072 114.126 96.5014 111.446C97.2114 109.708 97.9457 107.911 98.8473 107.254C99.7701 106.583 101.725 106.436 103.615 106.293C106.481 106.082 109.73 105.831 111.41 103.52C113.075 101.231 112.346 98.2217 111.643 95.304C111.193 93.4459 110.728 91.5245 111.09 90.411C111.423 89.3859 112.883 88.1514 114.294 86.9591ZM107.588 89.2712C106.905 91.3779 107.495 93.8133 108.065 96.1709C108.548 98.1724 109.097 100.435 108.434 101.345C107.756 102.276 105.411 102.453 103.342 102.609C100.939 102.791 98.4525 102.978 96.6829 104.266C94.9332 105.539 93.9977 107.83 93.093 110.044C92.3019 111.981 91.4076 114.176 90.2794 114.543C89.2523 114.872 87.292 113.671 85.5644 112.607C83.4661 111.321 81.3088 109.988 79.0503 109.988C76.7918 109.988 74.6261 111.317 72.5416 112.605C70.8141 113.669 68.8547 114.868 67.8255 114.541C66.7005 114.174 65.8041 111.979 65.0119 110.042C64.1081 107.83 63.1717 105.536 61.4229 104.264C59.6533 102.976 57.1661 102.789 54.7613 102.606C52.6935 102.449 50.3486 102.273 49.6703 101.342C49.0088 100.431 49.5577 98.166 50.0411 96.1666C50.611 93.809 51.1999 91.3727 50.5174 89.2681C49.8602 87.2446 47.9892 85.6667 46.1859 84.1403C44.5699 82.7709 42.7372 81.2266 42.7372 79.9952C42.7372 78.7639 44.569 77.2164 46.185 75.8513C47.9915 74.3249 49.8601 72.747 50.5176 70.7224C51.2013 68.6157 50.6112 66.1812 50.0414 63.8248C49.5579 61.8233 49.0091 59.5596 49.6706 58.6495C50.349 57.7183 52.6937 57.5414 54.7615 57.3855C57.1663 57.2032 59.6533 57.0168 61.4231 55.7275C63.1717 54.4549 64.1083 52.165 65.0121 49.9508C65.8041 48.0136 66.6975 45.8173 67.8267 45.4518C67.954 45.4126 68.0864 45.3934 68.2196 45.395C69.3067 45.395 71.0143 46.4483 72.5384 47.3879C74.6272 48.674 76.7877 50.0033 79.0462 50.0033C81.3047 50.0033 83.4661 48.6812 85.5581 47.3899C87.2856 46.325 89.2376 45.123 90.2751 45.4538C91.399 45.8194 92.2965 48.0157 93.0887 49.9527C93.9936 52.1648 94.9289 54.457 96.6777 55.7293C98.4473 57.0186 100.934 57.2041 103.339 57.3873C105.407 57.5444 107.752 57.7213 108.43 58.6513C109.092 59.5626 108.544 61.8272 108.059 63.8275C107.49 66.184 106.901 68.6205 107.583 70.7251C108.24 72.7497 110.111 74.3277 111.916 75.854C113.532 77.2234 115.364 78.7666 115.364 79.998C115.364 81.2293 113.532 82.7768 111.915 84.143C110.108 85.6696 108.24 87.2476 107.588 89.2712Z" fill="#4C0C5F"/>
<path d="M87.4981 68.4089L75.7129 80.1941L70.6019 75.083C68.2353 72.7175 64.3993 72.7184 62.0338 75.0851C59.6683 77.4517 59.6692 81.2877 62.0358 83.6532L71.4299 93.0473C73.7956 95.4123 77.6303 95.4123 79.996 93.0473L96.0642 76.9737C98.4471 74.626 98.4758 70.7909 96.128 68.408C93.7801 66.0251 89.9453 65.9964 87.5623 68.3442C87.5408 68.366 87.5194 68.3874 87.4981 68.4089ZM93.4571 74.367L77.3889 90.4352C76.4518 91.3327 74.9741 91.3327 74.037 90.4352L64.642 81.0402C63.717 80.1147 63.7174 78.6143 64.6431 77.6895C65.5687 76.7644 67.069 76.7648 67.9939 77.6906L74.4069 84.1045C75.1268 84.8237 76.2932 84.8237 77.0129 84.1045L90.1023 71.0131C91.0115 70.0715 92.5119 70.045 93.4537 70.9543C94.3955 71.8635 94.4217 73.3639 93.5125 74.3057C93.4935 74.3254 93.474 74.3448 93.4541 74.3641L93.4571 74.367Z" fill="#4C0C5F"/>
</g>
<path d="M114.717 46.2256C116.296 46.2256 117.577 47.5075 117.577 49.0863C117.577 50.6652 116.296 51.9471 114.717 51.9471C113.138 51.9471 111.856 50.6652 111.856 49.0863C111.856 47.5075 113.138 46.2256 114.717 46.2256Z" fill="#65107F"/>
<path d="M114.717 46.2256C116.296 46.2256 117.577 47.5075 117.577 49.0863C117.577 50.6652 116.296 51.9471 114.717 51.9471C113.138 51.9471 111.856 50.6652 111.856 49.0863C111.856 47.5075 113.138 46.2256 114.717 46.2256Z" stroke="#4C0C5F" stroke-width="0.46447"/>
<path d="M15.6753 51.2842C15.6753 51.2842 27.0233 40.1032 31.1763 36.0112" stroke="#E8DBEC" stroke-width="5" stroke-linecap="round" stroke-linejoin="round"/>
<defs>
<clipPath id="clip0_9131_1796">
<rect width="80" height="80" fill="white" transform="translate(39.0503 40)"/>
</clipPath>
</defs>
</svg>
