<svg width="159" height="16" viewBox="0 0 159 16" fill="none" xmlns="http://www.w3.org/2000/svg">
<path d="M9.17773 10.8223H11.8633C11.7917 11.7728 11.528 12.6159 11.0723 13.3516C10.6165 14.0807 9.98177 14.6536 9.16797 15.0703C8.35417 15.487 7.36784 15.6953 6.20898 15.6953C5.31706 15.6953 4.51302 15.5391 3.79688 15.2266C3.08724 14.9076 2.47852 14.4551 1.9707 13.8691C1.4694 13.2767 1.08529 12.5671 0.818359 11.7402C0.551432 10.9069 0.417969 9.97266 0.417969 8.9375V7.85352C0.417969 6.81836 0.554688 5.88411 0.828125 5.05078C1.10156 4.21745 1.49219 3.50781 2 2.92188C2.51432 2.32943 3.12956 1.8737 3.8457 1.55469C4.56836 1.23568 5.37565 1.07617 6.26758 1.07617C7.42643 1.07617 8.40625 1.29102 9.20703 1.7207C10.0078 2.14388 10.6296 2.72656 11.0723 3.46875C11.515 4.21094 11.7819 5.0638 11.873 6.02734H9.1875C9.13542 5.42839 9.00521 4.92057 8.79688 4.50391C8.59505 4.08724 8.28906 3.77148 7.87891 3.55664C7.47526 3.33529 6.93815 3.22461 6.26758 3.22461C5.74674 3.22461 5.28776 3.32227 4.89062 3.51758C4.5 3.71289 4.17448 4.00586 3.91406 4.39648C3.65365 4.7806 3.45833 5.26237 3.32812 5.8418C3.19792 6.41471 3.13281 7.07878 3.13281 7.83398V8.9375C3.13281 9.66016 3.19141 10.3079 3.30859 10.8809C3.42578 11.4538 3.60807 11.9388 3.85547 12.3359C4.10286 12.7331 4.42188 13.0358 4.8125 13.2441C5.20312 13.4525 5.66862 13.5566 6.20898 13.5566C6.86654 13.5566 7.40039 13.4525 7.81055 13.2441C8.22721 13.0358 8.54297 12.7298 8.75781 12.3262C8.97917 11.9225 9.11914 11.4212 9.17773 10.8223ZM20.0371 12.9902V4.93359H22.6348V15.5H20.1934L20.0371 12.9902ZM20.3691 10.8027L21.1699 10.7832C21.1699 11.4928 21.0918 12.1471 20.9355 12.7461C20.7793 13.3451 20.5352 13.8659 20.2031 14.3086C19.8776 14.7448 19.4642 15.0866 18.9629 15.334C18.4616 15.5749 17.8691 15.6953 17.1855 15.6953C16.6647 15.6953 16.1895 15.6237 15.7598 15.4805C15.3301 15.3307 14.959 15.0996 14.6465 14.7871C14.3405 14.4681 14.1029 14.0612 13.9336 13.5664C13.7643 13.0651 13.6797 12.4629 13.6797 11.7598V4.93359H16.2578V11.7793C16.2578 12.1309 16.2969 12.4238 16.375 12.6582C16.4596 12.8926 16.5736 13.0846 16.7168 13.2344C16.8665 13.3776 17.0391 13.4818 17.2344 13.5469C17.4362 13.6055 17.651 13.6348 17.8789 13.6348C18.5039 13.6348 18.9954 13.5111 19.3535 13.2637C19.7181 13.0098 19.9785 12.6712 20.1348 12.248C20.291 11.8184 20.3691 11.3366 20.3691 10.8027ZM30.7305 12.6094C30.7305 12.388 30.6719 12.1895 30.5547 12.0137C30.4375 11.8379 30.2161 11.6784 29.8906 11.5352C29.5716 11.3854 29.1029 11.2454 28.4844 11.1152C27.9375 10.998 27.4329 10.8516 26.9707 10.6758C26.5085 10.5 26.1113 10.2884 25.7793 10.041C25.4473 9.78711 25.1868 9.49089 24.998 9.15234C24.8158 8.80729 24.7246 8.41016 24.7246 7.96094C24.7246 7.52474 24.819 7.11458 25.0078 6.73047C25.1966 6.33984 25.4701 5.99805 25.8281 5.70508C26.1862 5.4056 26.6224 5.17122 27.1367 5.00195C27.651 4.82617 28.2305 4.73828 28.875 4.73828C29.7734 4.73828 30.5449 4.88477 31.1895 5.17773C31.8405 5.4707 32.3385 5.87435 32.6836 6.38867C33.0286 6.89648 33.2012 7.4694 33.2012 8.10742H30.623C30.623 7.82747 30.5579 7.57357 30.4277 7.3457C30.304 7.11784 30.112 6.93555 29.8516 6.79883C29.5911 6.6556 29.2624 6.58398 28.8652 6.58398C28.5072 6.58398 28.2044 6.64258 27.957 6.75977C27.7161 6.87695 27.5339 7.02995 27.4102 7.21875C27.2865 7.40755 27.2246 7.61589 27.2246 7.84375C27.2246 8.01302 27.2572 8.16602 27.3223 8.30273C27.3939 8.43294 27.5078 8.55339 27.6641 8.66406C27.8203 8.77474 28.0319 8.87565 28.2988 8.9668C28.5723 9.05794 28.9076 9.14583 29.3047 9.23047C30.0924 9.38672 30.7793 9.59505 31.3652 9.85547C31.9577 10.1094 32.4199 10.4479 32.752 10.8711C33.084 11.2943 33.25 11.8346 33.25 12.4922C33.25 12.9609 33.1491 13.3906 32.9473 13.7812C32.7454 14.1654 32.4525 14.5007 32.0684 14.7871C31.6842 15.0736 31.2253 15.2982 30.6914 15.4609C30.1576 15.6172 29.5553 15.6953 28.8848 15.6953C27.9147 15.6953 27.0944 15.5228 26.4238 15.1777C25.7533 14.8262 25.2454 14.3835 24.9004 13.8496C24.5553 13.3092 24.3828 12.7493 24.3828 12.1699H26.8535C26.873 12.5801 26.9837 12.9089 27.1855 13.1562C27.3874 13.4036 27.6413 13.5827 27.9473 13.6934C28.2598 13.7975 28.5885 13.8496 28.9336 13.8496C29.3242 13.8496 29.653 13.7975 29.9199 13.6934C30.1868 13.5827 30.3887 13.4362 30.5254 13.2539C30.6621 13.0651 30.7305 12.8503 30.7305 12.6094ZM40.2129 4.93359V6.78906H34.1582V4.93359H40.2129ZM35.7793 2.33594H38.3672V12.4531C38.3672 12.7656 38.4095 13.0065 38.4941 13.1758C38.5788 13.3451 38.7057 13.459 38.875 13.5176C39.0443 13.5762 39.2461 13.6055 39.4805 13.6055C39.6497 13.6055 39.806 13.5957 39.9492 13.5762C40.0924 13.5566 40.2129 13.5371 40.3105 13.5176L40.3203 15.4512C40.1055 15.5228 39.8613 15.5814 39.5879 15.627C39.321 15.6725 39.0182 15.6953 38.6797 15.6953C38.1003 15.6953 37.5924 15.5977 37.1562 15.4023C36.7201 15.2005 36.3815 14.8783 36.1406 14.4355C35.8997 13.9863 35.7793 13.3939 35.7793 12.6582V2.33594ZM41.2188 10.3242V10.1191C41.2188 9.3444 41.3294 8.63151 41.5508 7.98047C41.7721 7.32292 42.0944 6.75326 42.5176 6.27148C42.9408 5.78971 43.4583 5.41536 44.0703 5.14844C44.6823 4.875 45.3789 4.73828 46.1602 4.73828C46.9544 4.73828 47.6576 4.875 48.2695 5.14844C48.888 5.41536 49.4089 5.78971 49.832 6.27148C50.2552 6.75326 50.5775 7.32292 50.7988 7.98047C51.0202 8.63151 51.1309 9.3444 51.1309 10.1191V10.3242C51.1309 11.0924 51.0202 11.8053 50.7988 12.4629C50.5775 13.1139 50.2552 13.6836 49.832 14.1719C49.4089 14.6536 48.8913 15.028 48.2793 15.2949C47.6673 15.5618 46.9674 15.6953 46.1797 15.6953C45.3984 15.6953 44.6986 15.5618 44.0801 15.2949C43.4616 15.028 42.9408 14.6536 42.5176 14.1719C42.0944 13.6836 41.7721 13.1139 41.5508 12.4629C41.3294 11.8053 41.2188 11.0924 41.2188 10.3242ZM43.7969 10.1191V10.3242C43.7969 10.7865 43.8424 11.2194 43.9336 11.623C44.0247 12.0267 44.1647 12.3815 44.3535 12.6875C44.5423 12.9935 44.7865 13.2344 45.0859 13.4102C45.3919 13.5794 45.7565 13.6641 46.1797 13.6641C46.5964 13.6641 46.9544 13.5794 47.2539 13.4102C47.5534 13.2344 47.7975 12.9935 47.9863 12.6875C48.1816 12.3815 48.3249 12.0267 48.416 11.623C48.5072 11.2194 48.5527 10.7865 48.5527 10.3242V10.1191C48.5527 9.66341 48.5072 9.23698 48.416 8.83984C48.3249 8.4362 48.1816 8.08138 47.9863 7.77539C47.7975 7.46289 47.5501 7.21875 47.2441 7.04297C46.9447 6.86068 46.5833 6.76953 46.1602 6.76953C45.7435 6.76953 45.3854 6.86068 45.0859 7.04297C44.7865 7.21875 44.5423 7.46289 44.3535 7.77539C44.1647 8.08138 44.0247 8.4362 43.9336 8.83984C43.8424 9.23698 43.7969 9.66341 43.7969 10.1191ZM55.5742 7.10156V15.5H52.9961V4.93359H55.4277L55.5742 7.10156ZM55.1934 9.83594H54.4023C54.4023 9.10026 54.4902 8.42318 54.666 7.80469C54.8483 7.1862 55.1152 6.64909 55.4668 6.19336C55.8184 5.73112 56.2513 5.37305 56.7656 5.11914C57.2865 4.86523 57.8887 4.73828 58.5723 4.73828C59.0475 4.73828 59.4837 4.8099 59.8809 4.95312C60.278 5.08984 60.6198 5.30794 60.9062 5.60742C61.1992 5.90039 61.4238 6.28451 61.5801 6.75977C61.7363 7.22852 61.8145 7.79167 61.8145 8.44922V15.5H59.2363V8.71289C59.2363 8.2181 59.1647 7.83073 59.0215 7.55078C58.8848 7.27083 58.6862 7.07552 58.4258 6.96484C58.1654 6.84766 57.8529 6.78906 57.4883 6.78906C57.0846 6.78906 56.7363 6.87044 56.4434 7.0332C56.1569 7.18945 55.9193 7.40755 55.7305 7.6875C55.5482 7.96745 55.4115 8.28971 55.3203 8.6543C55.2357 9.01888 55.1934 9.41276 55.1934 9.83594ZM61.6191 9.35742L60.5547 9.55273C60.5612 8.88867 60.6523 8.26693 60.8281 7.6875C61.0039 7.10156 61.2611 6.59049 61.5996 6.1543C61.9447 5.71159 62.3711 5.36654 62.8789 5.11914C63.3932 4.86523 63.9857 4.73828 64.6562 4.73828C65.1771 4.73828 65.6458 4.81315 66.0625 4.96289C66.4857 5.10612 66.847 5.33724 67.1465 5.65625C67.446 5.96875 67.6738 6.37565 67.8301 6.87695C67.9928 7.37826 68.0742 7.99023 68.0742 8.71289V15.5H65.4766V8.70312C65.4766 8.1888 65.4049 7.79492 65.2617 7.52148C65.125 7.24805 64.9264 7.05924 64.666 6.95508C64.4056 6.8444 64.0996 6.78906 63.748 6.78906C63.39 6.78906 63.0775 6.85742 62.8105 6.99414C62.5501 7.12435 62.3288 7.30664 62.1465 7.54102C61.9707 7.77539 61.8372 8.04883 61.7461 8.36133C61.6615 8.66732 61.6191 8.99935 61.6191 9.35742ZM75.1348 15.6953C74.334 15.6953 73.6146 15.5651 72.9766 15.3047C72.3385 15.0443 71.7949 14.6829 71.3457 14.2207C70.903 13.752 70.5612 13.2083 70.3203 12.5898C70.0859 11.9648 69.9688 11.2943 69.9688 10.5781V10.1875C69.9688 9.3737 70.0859 8.63477 70.3203 7.9707C70.5547 7.30013 70.8867 6.72396 71.3164 6.24219C71.7461 5.76042 72.2604 5.38932 72.8594 5.12891C73.4583 4.86849 74.1191 4.73828 74.8418 4.73828C75.5905 4.73828 76.2513 4.86523 76.8242 5.11914C77.3971 5.36654 77.8757 5.7181 78.2598 6.17383C78.6439 6.62956 78.9336 7.17643 79.1289 7.81445C79.3242 8.44596 79.4219 9.14583 79.4219 9.91406V10.998H71.1406V9.2207H76.8828V9.02539C76.8698 8.61523 76.7917 8.24089 76.6484 7.90234C76.5052 7.55729 76.2839 7.28385 75.9844 7.08203C75.6849 6.8737 75.2975 6.76953 74.8223 6.76953C74.4382 6.76953 74.1029 6.85417 73.8164 7.02344C73.5365 7.1862 73.3021 7.42057 73.1133 7.72656C72.931 8.02604 72.7943 8.38411 72.7031 8.80078C72.612 9.21745 72.5664 9.67969 72.5664 10.1875V10.5781C72.5664 11.0208 72.625 11.431 72.7422 11.8086C72.8659 12.1862 73.0449 12.515 73.2793 12.7949C73.5202 13.0684 73.8066 13.2832 74.1387 13.4395C74.4772 13.5892 74.8613 13.6641 75.291 13.6641C75.8314 13.6641 76.3197 13.5599 76.7559 13.3516C77.1986 13.1367 77.5827 12.821 77.9082 12.4043L79.207 13.752C78.9857 14.0775 78.6862 14.39 78.3086 14.6895C77.9375 14.9889 77.4883 15.2331 76.9609 15.4219C76.4336 15.6042 75.8249 15.6953 75.1348 15.6953ZM83.7285 7.0918V15.5H81.1504V4.93359H83.5918L83.7285 7.0918ZM86.9414 4.86523L86.9023 7.26758C86.7591 7.24154 86.5964 7.22201 86.4141 7.20898C86.2383 7.19596 86.0723 7.18945 85.916 7.18945C85.5189 7.18945 85.1706 7.24479 84.8711 7.35547C84.5716 7.45964 84.321 7.61263 84.1191 7.81445C83.9238 8.01628 83.7741 8.26367 83.6699 8.55664C83.5658 8.8431 83.5072 9.16862 83.4941 9.5332L82.9375 9.46484C82.9375 8.79427 83.0059 8.17253 83.1426 7.59961C83.2793 7.02669 83.4779 6.52539 83.7383 6.0957C83.9987 5.66602 84.3242 5.33398 84.7148 5.09961C85.112 4.85872 85.5677 4.73828 86.082 4.73828C86.2253 4.73828 86.3783 4.7513 86.541 4.77734C86.7103 4.79688 86.8438 4.82617 86.9414 4.86523ZM100.975 11.8086C100.975 11.5352 100.932 11.291 100.848 11.0762C100.77 10.8548 100.623 10.6562 100.408 10.4805C100.2 10.2982 99.9036 10.1224 99.5195 9.95312C99.1419 9.77734 98.6536 9.59505 98.0547 9.40625C97.3906 9.19792 96.7721 8.96354 96.1992 8.70312C95.6263 8.44271 95.1217 8.13997 94.6855 7.79492C94.2559 7.44987 93.9206 7.05273 93.6797 6.60352C93.4388 6.14779 93.3184 5.62044 93.3184 5.02148C93.3184 4.43555 93.4421 3.90169 93.6895 3.41992C93.9434 2.93815 94.3014 2.52474 94.7637 2.17969C95.2259 1.82812 95.7695 1.55794 96.3945 1.36914C97.026 1.18034 97.7227 1.08594 98.4844 1.08594C99.5391 1.08594 100.451 1.27799 101.219 1.66211C101.993 2.04622 102.592 2.56706 103.016 3.22461C103.439 3.88216 103.65 4.62109 103.65 5.44141H100.975C100.975 4.9987 100.88 4.60807 100.691 4.26953C100.509 3.93099 100.229 3.66406 99.8516 3.46875C99.4805 3.27344 99.0117 3.17578 98.4453 3.17578C97.8984 3.17578 97.4427 3.25716 97.0781 3.41992C96.7201 3.58268 96.4499 3.80404 96.2676 4.08398C96.0918 4.36393 96.0039 4.67643 96.0039 5.02148C96.0039 5.2819 96.0658 5.51628 96.1895 5.72461C96.3132 5.92643 96.4987 6.11849 96.7461 6.30078C96.9935 6.47656 97.2995 6.64258 97.6641 6.79883C98.0352 6.94857 98.4648 7.09831 98.9531 7.24805C99.7344 7.48242 100.418 7.74284 101.004 8.0293C101.596 8.31576 102.088 8.64128 102.479 9.00586C102.876 9.37044 103.172 9.7806 103.367 10.2363C103.569 10.6921 103.67 11.2096 103.67 11.7891C103.67 12.401 103.549 12.9479 103.309 13.4297C103.068 13.9115 102.723 14.3216 102.273 14.6602C101.824 14.9987 101.284 15.2559 100.652 15.4316C100.027 15.6074 99.3275 15.6953 98.5527 15.6953C97.8626 15.6953 97.179 15.6042 96.502 15.4219C95.8314 15.2331 95.2227 14.9531 94.6758 14.582C94.1289 14.2044 93.6927 13.7292 93.3672 13.1562C93.0417 12.5768 92.8789 11.8997 92.8789 11.125H95.5742C95.5742 11.5742 95.6458 11.9583 95.7891 12.2773C95.9388 12.5898 96.1471 12.847 96.4141 13.0488C96.6875 13.2441 97.0065 13.3874 97.3711 13.4785C97.7357 13.5697 98.1296 13.6152 98.5527 13.6152C99.0996 13.6152 99.5488 13.5404 99.9004 13.3906C100.258 13.2344 100.525 13.0195 100.701 12.7461C100.883 12.4727 100.975 12.1602 100.975 11.8086ZM110.291 15.6953C109.49 15.6953 108.771 15.5651 108.133 15.3047C107.495 15.0443 106.951 14.6829 106.502 14.2207C106.059 13.752 105.717 13.2083 105.477 12.5898C105.242 11.9648 105.125 11.2943 105.125 10.5781V10.1875C105.125 9.3737 105.242 8.63477 105.477 7.9707C105.711 7.30013 106.043 6.72396 106.473 6.24219C106.902 5.76042 107.417 5.38932 108.016 5.12891C108.615 4.86849 109.275 4.73828 109.998 4.73828C110.747 4.73828 111.408 4.86523 111.98 5.11914C112.553 5.36654 113.032 5.7181 113.416 6.17383C113.8 6.62956 114.09 7.17643 114.285 7.81445C114.48 8.44596 114.578 9.14583 114.578 9.91406V10.998H106.297V9.2207H112.039V9.02539C112.026 8.61523 111.948 8.24089 111.805 7.90234C111.661 7.55729 111.44 7.28385 111.141 7.08203C110.841 6.8737 110.454 6.76953 109.979 6.76953C109.594 6.76953 109.259 6.85417 108.973 7.02344C108.693 7.1862 108.458 7.42057 108.27 7.72656C108.087 8.02604 107.951 8.38411 107.859 8.80078C107.768 9.21745 107.723 9.67969 107.723 10.1875V10.5781C107.723 11.0208 107.781 11.431 107.898 11.8086C108.022 12.1862 108.201 12.515 108.436 12.7949C108.676 13.0684 108.963 13.2832 109.295 13.4395C109.633 13.5892 110.018 13.6641 110.447 13.6641C110.988 13.6641 111.476 13.5599 111.912 13.3516C112.355 13.1367 112.739 12.821 113.064 12.4043L114.363 13.752C114.142 14.0775 113.842 14.39 113.465 14.6895C113.094 14.9889 112.645 15.2331 112.117 15.4219C111.59 15.6042 110.981 15.6953 110.291 15.6953ZM118.885 7.0918V15.5H116.307V4.93359H118.748L118.885 7.0918ZM122.098 4.86523L122.059 7.26758C121.915 7.24154 121.753 7.22201 121.57 7.20898C121.395 7.19596 121.229 7.18945 121.072 7.18945C120.675 7.18945 120.327 7.24479 120.027 7.35547C119.728 7.45964 119.477 7.61263 119.275 7.81445C119.08 8.01628 118.93 8.26367 118.826 8.55664C118.722 8.8431 118.663 9.16862 118.65 9.5332L118.094 9.46484C118.094 8.79427 118.162 8.17253 118.299 7.59961C118.436 7.02669 118.634 6.52539 118.895 6.0957C119.155 5.66602 119.48 5.33398 119.871 5.09961C120.268 4.85872 120.724 4.73828 121.238 4.73828C121.382 4.73828 121.535 4.7513 121.697 4.77734C121.867 4.79688 122 4.82617 122.098 4.86523ZM127.195 13.5469L129.656 4.93359H132.352L128.729 15.5H127.088L127.195 13.5469ZM125.398 4.93359L127.889 13.5664L127.977 15.5H126.326L122.693 4.93359H125.398ZM136.443 4.93359V15.5H133.855V4.93359H136.443ZM133.68 2.16992C133.68 1.78581 133.81 1.4668 134.07 1.21289C134.337 0.958984 134.695 0.832031 135.145 0.832031C135.594 0.832031 135.949 0.958984 136.209 1.21289C136.476 1.4668 136.609 1.78581 136.609 2.16992C136.609 2.54753 136.476 2.86328 136.209 3.11719C135.949 3.37109 135.594 3.49805 135.145 3.49805C134.695 3.49805 134.337 3.37109 134.07 3.11719C133.81 2.86328 133.68 2.54753 133.68 2.16992ZM143.24 13.6641C143.605 13.6641 143.93 13.5924 144.217 13.4492C144.503 13.306 144.731 13.1042 144.9 12.8438C145.076 12.5833 145.171 12.2806 145.184 11.9355H147.615C147.602 12.6517 147.4 13.293 147.01 13.8594C146.619 14.4258 146.098 14.875 145.447 15.207C144.803 15.5326 144.08 15.6953 143.279 15.6953C142.465 15.6953 141.756 15.5586 141.15 15.2852C140.545 15.0117 140.04 14.6309 139.637 14.1426C139.24 13.6543 138.94 13.0879 138.738 12.4434C138.543 11.7988 138.445 11.1087 138.445 10.373V10.0605C138.445 9.32487 138.543 8.63477 138.738 7.99023C138.94 7.3457 139.24 6.7793 139.637 6.29102C140.04 5.80273 140.545 5.42188 141.15 5.14844C141.756 4.875 142.462 4.73828 143.27 4.73828C144.122 4.73828 144.871 4.9043 145.516 5.23633C146.167 5.56836 146.674 6.03711 147.039 6.64258C147.41 7.24805 147.602 7.96094 147.615 8.78125H145.184C145.171 8.40365 145.086 8.0651 144.93 7.76562C144.773 7.46615 144.552 7.22526 144.266 7.04297C143.979 6.86068 143.631 6.76953 143.221 6.76953C142.785 6.76953 142.42 6.86068 142.127 7.04297C141.84 7.22526 141.616 7.47591 141.453 7.79492C141.297 8.10742 141.186 8.45898 141.121 8.84961C141.062 9.23372 141.033 9.63737 141.033 10.0605V10.373C141.033 10.8027 141.062 11.2129 141.121 11.6035C141.186 11.9941 141.297 12.3457 141.453 12.6582C141.616 12.9642 141.84 13.2083 142.127 13.3906C142.42 13.5729 142.791 13.6641 143.24 13.6641ZM154.08 15.6953C153.279 15.6953 152.56 15.5651 151.922 15.3047C151.284 15.0443 150.74 14.6829 150.291 14.2207C149.848 13.752 149.507 13.2083 149.266 12.5898C149.031 11.9648 148.914 11.2943 148.914 10.5781V10.1875C148.914 9.3737 149.031 8.63477 149.266 7.9707C149.5 7.30013 149.832 6.72396 150.262 6.24219C150.691 5.76042 151.206 5.38932 151.805 5.12891C152.404 4.86849 153.064 4.73828 153.787 4.73828C154.536 4.73828 155.197 4.86523 155.77 5.11914C156.342 5.36654 156.821 5.7181 157.205 6.17383C157.589 6.62956 157.879 7.17643 158.074 7.81445C158.27 8.44596 158.367 9.14583 158.367 9.91406V10.998H150.086V9.2207H155.828V9.02539C155.815 8.61523 155.737 8.24089 155.594 7.90234C155.451 7.55729 155.229 7.28385 154.93 7.08203C154.63 6.8737 154.243 6.76953 153.768 6.76953C153.383 6.76953 153.048 6.85417 152.762 7.02344C152.482 7.1862 152.247 7.42057 152.059 7.72656C151.876 8.02604 151.74 8.38411 151.648 8.80078C151.557 9.21745 151.512 9.67969 151.512 10.1875V10.5781C151.512 11.0208 151.57 11.431 151.688 11.8086C151.811 12.1862 151.99 12.515 152.225 12.7949C152.465 13.0684 152.752 13.2832 153.084 13.4395C153.423 13.5892 153.807 13.6641 154.236 13.6641C154.777 13.6641 155.265 13.5599 155.701 13.3516C156.144 13.1367 156.528 12.821 156.854 12.4043L158.152 13.752C157.931 14.0775 157.632 14.39 157.254 14.6895C156.883 14.9889 156.434 15.2331 155.906 15.4219C155.379 15.6042 154.77 15.6953 154.08 15.6953Z" fill="#4C0C5F"/>
</svg>
