<svg width="310" height="196" viewBox="0 0 310 196" fill="none" xmlns="http://www.w3.org/2000/svg">
<g clip-path="url(#clip0_10662_13963)">
<rect x="132.164" y="29.7871" width="57.7458" height="22.1421" rx="4.99319" stroke="#65107F" stroke-width="2.4375" stroke-dasharray="4.14 4.14"/>
<rect x="130.945" y="60.4604" width="60.1833" height="24.5796" rx="6.21194" fill="#B1B0B2"/>
<rect x="130.945" y="92.3525" width="60.1833" height="24.5796" rx="6.21194" fill="#B1B0B2"/>
<g filter="url(#filter0_d_10662_13963)">
<rect x="51.4062" y="34.0254" width="69.6935" height="30.6921" rx="7.19356" transform="rotate(-28.4593 51.4062 34.0254)" fill="#B1B0B2"/>
<rect x="51.4062" y="34.0254" width="69.6935" height="30.6921" rx="7.19356" transform="rotate(-28.4593 51.4062 34.0254)" stroke="#B1B0B2" stroke-width="2.4375"/>
</g>
</g>
<path d="M16.8357 180H13.4224L13.4448 178.237H16.8357C18.0034 178.237 18.9765 177.994 19.755 177.507C20.5335 177.013 21.1174 176.325 21.5066 175.441C21.9033 174.551 22.1017 173.51 22.1017 172.32V171.321C22.1017 170.385 21.9894 169.554 21.7648 168.828C21.5403 168.094 21.2109 167.477 20.7768 166.975C20.3426 166.466 19.8112 166.081 19.1824 165.819C18.5611 165.557 17.8462 165.426 17.0378 165.426H13.355V163.652H17.0378C18.1082 163.652 19.0851 163.832 19.9683 164.191C20.8516 164.543 21.6114 165.055 22.2476 165.729C22.8914 166.395 23.3854 167.204 23.7298 168.154C24.0741 169.098 24.2462 170.16 24.2462 171.343V172.32C24.2462 173.503 24.0741 174.569 23.7298 175.52C23.3854 176.463 22.8876 177.268 22.2364 177.934C21.5927 178.6 20.8142 179.113 19.901 179.472C18.9952 179.824 17.9735 180 16.8357 180ZM14.5789 163.652V180H12.4118V163.652H14.5789ZM28.5753 169.76V180H26.4982V167.851H28.5192L28.5753 169.76ZM32.3704 167.784L32.3592 169.715C32.187 169.678 32.0224 169.655 31.8652 169.648C31.7155 169.633 31.5433 169.625 31.3487 169.625C30.8696 169.625 30.4467 169.7 30.0799 169.85C29.7131 170 29.4025 170.209 29.148 170.479C28.8935 170.748 28.6914 171.07 28.5417 171.444C28.3994 171.811 28.3059 172.215 28.261 172.657L27.6771 172.994C27.6771 172.26 27.7482 171.571 27.8904 170.928C28.0401 170.284 28.2684 169.715 28.5753 169.221C28.8822 168.72 29.2715 168.33 29.7431 168.053C30.2221 167.769 30.791 167.627 31.4497 167.627C31.5994 167.627 31.7716 167.645 31.9662 167.683C32.1608 167.713 32.2956 167.746 32.3704 167.784ZM40.315 177.923V171.669C40.315 171.19 40.2177 170.774 40.0231 170.422C39.8359 170.063 39.5515 169.786 39.1697 169.592C38.788 169.397 38.3164 169.3 37.755 169.3C37.231 169.3 36.7707 169.389 36.3739 169.569C35.9847 169.749 35.6778 169.985 35.4532 170.276C35.2361 170.568 35.1276 170.883 35.1276 171.22H33.0504C33.0504 170.785 33.1627 170.355 33.3873 169.928C33.6118 169.502 33.9337 169.116 34.3529 168.772C34.7795 168.42 35.2885 168.143 35.8799 167.941C36.4787 167.731 37.1449 167.627 37.8785 167.627C38.7618 167.627 39.5402 167.776 40.2139 168.076C40.8951 168.375 41.4266 168.828 41.8083 169.434C42.1976 170.033 42.3922 170.785 42.3922 171.691V177.35C42.3922 177.754 42.4259 178.185 42.4932 178.641C42.5681 179.098 42.6766 179.491 42.8188 179.82V180H40.6518C40.547 179.76 40.4647 179.442 40.4048 179.046C40.3449 178.641 40.315 178.267 40.315 177.923ZM40.6743 172.634L40.6967 174.094H38.5971C38.0057 174.094 37.478 174.143 37.0139 174.24C36.5498 174.33 36.1606 174.468 35.8462 174.655C35.5318 174.843 35.2923 175.078 35.1276 175.363C34.9629 175.64 34.8806 175.965 34.8806 176.34C34.8806 176.721 34.9667 177.069 35.1388 177.384C35.311 177.698 35.5692 177.949 35.9136 178.136C36.2654 178.316 36.6958 178.406 37.2048 178.406C37.8411 178.406 38.4025 178.271 38.889 178.001C39.3756 177.732 39.7611 177.403 40.0455 177.013C40.3374 176.624 40.4946 176.246 40.5171 175.879L41.4041 176.879C41.3517 177.193 41.2095 177.541 40.9774 177.923C40.7454 178.305 40.4347 178.671 40.0455 179.023C39.6638 179.367 39.2071 179.656 38.6757 179.888C38.1517 180.112 37.5604 180.225 36.9016 180.225C36.0783 180.225 35.3559 180.064 34.7346 179.742C34.1208 179.42 33.6418 178.989 33.2974 178.451C32.9606 177.904 32.7922 177.294 32.7922 176.62C32.7922 175.969 32.9194 175.396 33.1739 174.902C33.4284 174.401 33.7952 173.985 34.2743 173.656C34.7533 173.319 35.3297 173.065 36.0034 172.893C36.6771 172.72 37.4294 172.634 38.2602 172.634H40.6743ZM52.8406 167.851H54.7269V179.742C54.7269 180.812 54.5098 181.725 54.0757 182.481C53.6415 183.237 53.0352 183.81 52.2567 184.199C51.4857 184.596 50.595 184.794 49.5844 184.794C49.1653 184.794 48.6712 184.727 48.1023 184.592C47.5409 184.465 46.987 184.244 46.4406 183.93C45.9016 183.623 45.4488 183.207 45.082 182.684L46.1711 181.448C46.6801 182.062 47.2116 182.489 47.7655 182.728C48.3269 182.968 48.8808 183.088 49.4272 183.088C50.086 183.088 50.6549 182.964 51.1339 182.717C51.613 182.47 51.9835 182.103 52.2455 181.617C52.515 181.138 52.6497 180.546 52.6497 179.843V170.523L52.8406 167.851ZM44.4757 174.06V173.825C44.4757 172.896 44.5842 172.054 44.8013 171.298C45.0258 170.535 45.344 169.88 45.7557 169.333C46.1748 168.787 46.6801 168.368 47.2715 168.076C47.8628 167.776 48.529 167.627 49.2701 167.627C50.0336 167.627 50.6998 167.761 51.2687 168.031C51.845 168.293 52.3316 168.678 52.7283 169.187C53.1325 169.689 53.4506 170.295 53.6827 171.006C53.9147 171.717 54.0757 172.522 54.1655 173.42V174.453C54.0832 175.344 53.9222 176.145 53.6827 176.856C53.4506 177.567 53.1325 178.174 52.7283 178.675C52.3316 179.177 51.845 179.562 51.2687 179.832C50.6923 180.094 50.0186 180.225 49.2476 180.225C48.5215 180.225 47.8628 180.071 47.2715 179.764C46.6876 179.457 46.1861 179.027 45.7669 178.473C45.3477 177.919 45.0258 177.268 44.8013 176.519C44.5842 175.763 44.4757 174.944 44.4757 174.06ZM46.5529 173.825V174.06C46.5529 174.667 46.6127 175.236 46.7325 175.767C46.8598 176.298 47.0506 176.766 47.3051 177.171C47.5671 177.575 47.9002 177.893 48.3044 178.125C48.7087 178.349 49.1915 178.462 49.7529 178.462C50.4415 178.462 51.0104 178.316 51.4595 178.024C51.9087 177.732 52.2642 177.346 52.5262 176.867C52.7957 176.388 53.0053 175.868 53.155 175.307V172.601C53.0726 172.189 52.9454 171.792 52.7732 171.411C52.6085 171.021 52.3915 170.677 52.122 170.378C51.86 170.071 51.5344 169.827 51.1451 169.648C50.7559 169.468 50.2993 169.378 49.7753 169.378C49.2064 169.378 48.7161 169.498 48.3044 169.738C47.9002 169.97 47.5671 170.291 47.3051 170.703C47.0506 171.107 46.8598 171.579 46.7325 172.118C46.6127 172.649 46.5529 173.218 46.5529 173.825ZM69.3697 177.923V171.669C69.3697 171.19 69.2724 170.774 69.0777 170.422C68.8906 170.063 68.6062 169.786 68.2244 169.592C67.8427 169.397 67.3711 169.3 66.8097 169.3C66.2857 169.3 65.8253 169.389 65.4286 169.569C65.0394 169.749 64.7325 169.985 64.5079 170.276C64.2908 170.568 64.1823 170.883 64.1823 171.22H62.1051C62.1051 170.785 62.2174 170.355 62.4419 169.928C62.6665 169.502 62.9884 169.116 63.4076 168.772C63.8342 168.42 64.3432 168.143 64.9346 167.941C65.5334 167.731 66.1996 167.627 66.9332 167.627C67.8165 167.627 68.5949 167.776 69.2686 168.076C69.9498 168.375 70.4813 168.828 70.863 169.434C71.2523 170.033 71.4469 170.785 71.4469 171.691V177.35C71.4469 177.754 71.4806 178.185 71.5479 178.641C71.6228 179.098 71.7313 179.491 71.8735 179.82V180H69.7065C69.6017 179.76 69.5194 179.442 69.4595 179.046C69.3996 178.641 69.3697 178.267 69.3697 177.923ZM69.729 172.634L69.7514 174.094H67.6518C67.0604 174.094 66.5327 174.143 66.0686 174.24C65.6045 174.33 65.2153 174.468 64.9009 174.655C64.5865 174.843 64.347 175.078 64.1823 175.363C64.0176 175.64 63.9353 175.965 63.9353 176.34C63.9353 176.721 64.0214 177.069 64.1935 177.384C64.3657 177.698 64.6239 177.949 64.9683 178.136C65.3201 178.316 65.7505 178.406 66.2595 178.406C66.8958 178.406 67.4572 178.271 67.9437 178.001C68.4303 177.732 68.8158 177.403 69.1002 177.013C69.3921 176.624 69.5493 176.246 69.5718 175.879L70.4588 176.879C70.4064 177.193 70.2642 177.541 70.0321 177.923C69.8001 178.305 69.4894 178.671 69.1002 179.023C68.7184 179.367 68.2618 179.656 67.7304 179.888C67.2064 180.112 66.6151 180.225 65.9563 180.225C65.1329 180.225 64.4106 180.064 63.7893 179.742C63.1755 179.42 62.6965 178.989 62.3521 178.451C62.0153 177.904 61.8469 177.294 61.8469 176.62C61.8469 175.969 61.9741 175.396 62.2286 174.902C62.4831 174.401 62.8499 173.985 63.329 173.656C63.808 173.319 64.3844 173.065 65.0581 172.893C65.7318 172.72 66.4841 172.634 67.3149 172.634H69.729ZM83.9002 178.518C84.3942 178.518 84.8508 178.417 85.27 178.215C85.6892 178.013 86.0335 177.736 86.303 177.384C86.5725 177.025 86.7259 176.617 86.7633 176.16H88.7395C88.702 176.879 88.4588 177.549 88.0096 178.17C87.568 178.784 86.9879 179.281 86.2693 179.663C85.5507 180.037 84.761 180.225 83.9002 180.225C82.9869 180.225 82.1898 180.064 81.5086 179.742C80.8349 179.42 80.2735 178.978 79.8244 178.417C79.3827 177.855 79.0496 177.212 78.8251 176.486C78.608 175.752 78.4995 174.977 78.4995 174.161V173.69C78.4995 172.874 78.608 172.103 78.8251 171.377C79.0496 170.643 79.3827 169.996 79.8244 169.434C80.2735 168.873 80.8349 168.431 81.5086 168.109C82.1898 167.788 82.9869 167.627 83.9002 167.627C84.8508 167.627 85.6817 167.821 86.3928 168.211C87.1039 168.592 87.6616 169.116 88.0658 169.782C88.4775 170.441 88.702 171.19 88.7395 172.028H86.7633C86.7259 171.527 86.5837 171.074 86.3367 170.669C86.0971 170.265 85.7678 169.943 85.3486 169.704C84.9369 169.457 84.4541 169.333 83.9002 169.333C83.2639 169.333 82.7287 169.461 82.2946 169.715C81.8679 169.962 81.5273 170.299 81.2728 170.726C81.0258 171.145 80.8461 171.613 80.7338 172.129C80.6291 172.638 80.5767 173.158 80.5767 173.69V174.161C80.5767 174.693 80.6291 175.217 80.7338 175.733C80.8386 176.25 81.0145 176.718 81.2616 177.137C81.5161 177.556 81.8567 177.893 82.2833 178.147C82.7175 178.394 83.2564 178.518 83.9002 178.518ZM97.5486 177.923V171.669C97.5486 171.19 97.4513 170.774 97.2566 170.422C97.0695 170.063 96.7851 169.786 96.4033 169.592C96.0216 169.397 95.55 169.3 94.9886 169.3C94.4646 169.3 94.0042 169.389 93.6075 169.569C93.2183 169.749 92.9114 169.985 92.6868 170.276C92.4697 170.568 92.3612 170.883 92.3612 171.22H90.284C90.284 170.785 90.3963 170.355 90.6208 169.928C90.8454 169.502 91.1673 169.116 91.5865 168.772C92.0131 168.42 92.5221 168.143 93.1135 167.941C93.7123 167.731 94.3785 167.627 95.1121 167.627C95.9954 167.627 96.7738 167.776 97.4475 168.076C98.1287 168.375 98.6602 168.828 99.0419 169.434C99.4311 170.033 99.6258 170.785 99.6258 171.691V177.35C99.6258 177.754 99.6595 178.185 99.7268 178.641C99.8017 179.098 99.9102 179.491 100.052 179.82V180H97.8854C97.7806 179.76 97.6983 179.442 97.6384 179.046C97.5785 178.641 97.5486 178.267 97.5486 177.923ZM97.9079 172.634L97.9303 174.094H95.8307C95.2393 174.094 94.7116 174.143 94.2475 174.24C93.7834 174.33 93.3942 174.468 93.0798 174.655C92.7654 174.843 92.5259 175.078 92.3612 175.363C92.1965 175.64 92.1142 175.965 92.1142 176.34C92.1142 176.721 92.2003 177.069 92.3724 177.384C92.5446 177.698 92.8028 177.949 93.1472 178.136C93.499 178.316 93.9294 178.406 94.4384 178.406C95.0747 178.406 95.6361 178.271 96.1226 178.001C96.6092 177.732 96.9947 177.403 97.2791 177.013C97.571 176.624 97.7282 176.246 97.7507 175.879L98.6377 176.879C98.5853 177.193 98.4431 177.541 98.211 177.923C97.979 178.305 97.6683 178.671 97.2791 179.023C96.8973 179.367 96.4407 179.656 95.9093 179.888C95.3853 180.112 94.794 180.225 94.1352 180.225C93.3118 180.225 92.5895 180.064 91.9682 179.742C91.3544 179.42 90.8753 178.989 90.531 178.451C90.1942 177.904 90.0258 177.294 90.0258 176.62C90.0258 175.969 90.153 175.396 90.4075 174.902C90.662 174.401 91.0288 173.985 91.5079 173.656C91.9869 173.319 92.5633 173.065 93.237 172.893C93.9107 172.72 94.663 172.634 95.4938 172.634H97.9079ZM104.28 169.76V180H102.203V167.851H104.224L104.28 169.76ZM108.076 167.784L108.064 169.715C107.892 169.678 107.728 169.655 107.57 169.648C107.421 169.633 107.248 169.625 107.054 169.625C106.575 169.625 106.152 169.7 105.785 169.85C105.418 170 105.108 170.209 104.853 170.479C104.599 170.748 104.397 171.07 104.247 171.444C104.105 171.811 104.011 172.215 103.966 172.657L103.382 172.994C103.382 172.26 103.453 171.571 103.596 170.928C103.745 170.284 103.974 169.715 104.28 169.221C104.587 168.72 104.977 168.33 105.448 168.053C105.927 167.769 106.496 167.627 107.155 167.627C107.305 167.627 107.477 167.645 107.671 167.683C107.866 167.713 108.001 167.746 108.076 167.784ZM116.739 177.642V162.754H118.827V180H116.918L116.739 177.642ZM108.565 174.06V173.825C108.565 172.896 108.677 172.054 108.902 171.298C109.134 170.535 109.459 169.88 109.878 169.333C110.305 168.787 110.81 168.368 111.394 168.076C111.986 167.776 112.644 167.627 113.37 167.627C114.134 167.627 114.8 167.761 115.369 168.031C115.945 168.293 116.432 168.678 116.829 169.187C117.233 169.689 117.551 170.295 117.783 171.006C118.015 171.717 118.176 172.522 118.266 173.42V174.453C118.183 175.344 118.022 176.145 117.783 176.856C117.551 177.567 117.233 178.174 116.829 178.675C116.432 179.177 115.945 179.562 115.369 179.832C114.793 180.094 114.119 180.225 113.348 180.225C112.637 180.225 111.986 180.071 111.394 179.764C110.81 179.457 110.305 179.027 109.878 178.473C109.459 177.919 109.134 177.268 108.902 176.519C108.677 175.763 108.565 174.944 108.565 174.06ZM110.653 173.825V174.06C110.653 174.667 110.713 175.236 110.833 175.767C110.96 176.298 111.155 176.766 111.417 177.171C111.679 177.575 112.012 177.893 112.416 178.125C112.82 178.349 113.303 178.462 113.864 178.462C114.553 178.462 115.118 178.316 115.56 178.024C116.009 177.732 116.368 177.346 116.638 176.867C116.907 176.388 117.117 175.868 117.266 175.307V172.601C117.177 172.189 117.046 171.792 116.873 171.411C116.709 171.021 116.492 170.677 116.222 170.378C115.96 170.071 115.635 169.827 115.245 169.648C114.864 169.468 114.411 169.378 113.887 169.378C113.318 169.378 112.828 169.498 112.416 169.738C112.012 169.97 111.679 170.291 111.417 170.703C111.155 171.107 110.96 171.579 110.833 172.118C110.713 172.649 110.653 173.218 110.653 173.825ZM131.471 167.851V169.446H124.903V167.851H131.471ZM127.126 164.898H129.203V176.991C129.203 177.403 129.267 177.713 129.394 177.923C129.521 178.132 129.686 178.271 129.888 178.338C130.09 178.406 130.307 178.439 130.539 178.439C130.712 178.439 130.891 178.424 131.078 178.394C131.273 178.357 131.419 178.327 131.516 178.305L131.527 180C131.363 180.052 131.146 180.101 130.876 180.146C130.614 180.198 130.296 180.225 129.922 180.225C129.413 180.225 128.945 180.124 128.518 179.921C128.092 179.719 127.751 179.382 127.497 178.911C127.25 178.432 127.126 177.788 127.126 176.98V164.898ZM132.443 174.06V173.802C132.443 172.926 132.57 172.114 132.825 171.366C133.079 170.61 133.446 169.955 133.925 169.401C134.404 168.839 134.985 168.405 135.666 168.098C136.347 167.784 137.11 167.627 137.956 167.627C138.81 167.627 139.577 167.784 140.258 168.098C140.947 168.405 141.53 168.839 142.01 169.401C142.496 169.955 142.867 170.61 143.121 171.366C143.376 172.114 143.503 172.926 143.503 173.802V174.06C143.503 174.936 143.376 175.748 143.121 176.497C142.867 177.245 142.496 177.9 142.01 178.462C141.53 179.016 140.95 179.45 140.269 179.764C139.596 180.071 138.832 180.225 137.979 180.225C137.125 180.225 136.358 180.071 135.677 179.764C134.996 179.45 134.412 179.016 133.925 178.462C133.446 177.9 133.079 177.245 132.825 176.497C132.57 175.748 132.443 174.936 132.443 174.06ZM134.52 173.802V174.06C134.52 174.667 134.592 175.239 134.734 175.778C134.876 176.31 135.089 176.781 135.374 177.193C135.666 177.605 136.029 177.93 136.463 178.17C136.897 178.402 137.402 178.518 137.979 178.518C138.548 178.518 139.045 178.402 139.472 178.17C139.906 177.93 140.265 177.605 140.55 177.193C140.834 176.781 141.048 176.31 141.19 175.778C141.34 175.239 141.414 174.667 141.414 174.06V173.802C141.414 173.203 141.34 172.638 141.19 172.107C141.048 171.568 140.831 171.092 140.539 170.681C140.254 170.262 139.895 169.932 139.461 169.693C139.034 169.453 138.533 169.333 137.956 169.333C137.387 169.333 136.886 169.453 136.452 169.693C136.025 169.932 135.666 170.262 135.374 170.681C135.089 171.092 134.876 171.568 134.734 172.107C134.592 172.638 134.52 173.203 134.52 173.802ZM157.595 177.923V171.669C157.595 171.19 157.498 170.774 157.304 170.422C157.116 170.063 156.832 169.786 156.45 169.592C156.068 169.397 155.597 169.3 155.035 169.3C154.511 169.3 154.051 169.389 153.654 169.569C153.265 169.749 152.958 169.985 152.734 170.276C152.517 170.568 152.408 170.883 152.408 171.22H150.331C150.331 170.785 150.443 170.355 150.668 169.928C150.892 169.502 151.214 169.116 151.633 168.772C152.06 168.42 152.569 168.143 153.16 167.941C153.759 167.731 154.425 167.627 155.159 167.627C156.042 167.627 156.821 167.776 157.494 168.076C158.176 168.375 158.707 168.828 159.089 169.434C159.478 170.033 159.673 170.785 159.673 171.691V177.35C159.673 177.754 159.706 178.185 159.774 178.641C159.849 179.098 159.957 179.491 160.099 179.82V180H157.932C157.828 179.76 157.745 179.442 157.685 179.046C157.625 178.641 157.595 178.267 157.595 177.923ZM157.955 172.634L157.977 174.094H155.878C155.286 174.094 154.759 174.143 154.294 174.24C153.83 174.33 153.441 174.468 153.127 174.655C152.812 174.843 152.573 175.078 152.408 175.363C152.243 175.64 152.161 175.965 152.161 176.34C152.161 176.721 152.247 177.069 152.419 177.384C152.591 177.698 152.85 177.949 153.194 178.136C153.546 178.316 153.976 178.406 154.485 178.406C155.122 178.406 155.683 178.271 156.17 178.001C156.656 177.732 157.042 177.403 157.326 177.013C157.618 176.624 157.775 176.246 157.798 175.879L158.685 176.879C158.632 177.193 158.49 177.541 158.258 177.923C158.026 178.305 157.715 178.671 157.326 179.023C156.944 179.367 156.488 179.656 155.956 179.888C155.432 180.112 154.841 180.225 154.182 180.225C153.359 180.225 152.636 180.064 152.015 179.742C151.401 179.42 150.922 178.989 150.578 178.451C150.241 177.904 150.073 177.294 150.073 176.62C150.073 175.969 150.2 175.396 150.454 174.902C150.709 174.401 151.076 173.985 151.555 173.656C152.034 173.319 152.61 173.065 153.284 172.893C153.958 172.72 154.71 172.634 155.541 172.634H157.955ZM169.908 177.642V162.754H171.996V180H170.087L169.908 177.642ZM161.734 174.06V173.825C161.734 172.896 161.846 172.054 162.071 171.298C162.303 170.535 162.628 169.88 163.047 169.333C163.474 168.787 163.979 168.368 164.563 168.076C165.155 167.776 165.813 167.627 166.539 167.627C167.303 167.627 167.969 167.761 168.538 168.031C169.114 168.293 169.601 168.678 169.998 169.187C170.402 169.689 170.72 170.295 170.952 171.006C171.184 171.717 171.345 172.522 171.435 173.42V174.453C171.352 175.344 171.191 176.145 170.952 176.856C170.72 177.567 170.402 178.174 169.998 178.675C169.601 179.177 169.114 179.562 168.538 179.832C167.962 180.094 167.288 180.225 166.517 180.225C165.806 180.225 165.155 180.071 164.563 179.764C163.979 179.457 163.474 179.027 163.047 178.473C162.628 177.919 162.303 177.268 162.071 176.519C161.846 175.763 161.734 174.944 161.734 174.06ZM163.822 173.825V174.06C163.822 174.667 163.882 175.236 164.002 175.767C164.129 176.298 164.324 176.766 164.586 177.171C164.848 177.575 165.181 177.893 165.585 178.125C165.989 178.349 166.472 178.462 167.033 178.462C167.722 178.462 168.287 178.316 168.729 178.024C169.178 177.732 169.537 177.346 169.807 176.867C170.076 176.388 170.286 175.868 170.435 175.307V172.601C170.346 172.189 170.215 171.792 170.042 171.411C169.878 171.021 169.661 170.677 169.391 170.378C169.129 170.071 168.804 169.827 168.414 169.648C168.033 169.468 167.58 169.378 167.056 169.378C166.487 169.378 165.997 169.498 165.585 169.738C165.181 169.97 164.848 170.291 164.586 170.703C164.324 171.107 164.129 171.579 164.002 172.118C163.882 172.649 163.822 173.218 163.822 173.825ZM182.198 177.642V162.754H184.286V180H182.377L182.198 177.642ZM174.024 174.06V173.825C174.024 172.896 174.136 172.054 174.36 171.298C174.592 170.535 174.918 169.88 175.337 169.333C175.764 168.787 176.269 168.368 176.853 168.076C177.444 167.776 178.103 167.627 178.829 167.627C179.593 167.627 180.259 167.761 180.828 168.031C181.404 168.293 181.891 168.678 182.287 169.187C182.692 169.689 183.01 170.295 183.242 171.006C183.474 171.717 183.635 172.522 183.725 173.42V174.453C183.642 175.344 183.481 176.145 183.242 176.856C183.01 177.567 182.692 178.174 182.287 178.675C181.891 179.177 181.404 179.562 180.828 179.832C180.251 180.094 179.578 180.225 178.807 180.225C178.096 180.225 177.444 180.071 176.853 179.764C176.269 179.457 175.764 179.027 175.337 178.473C174.918 177.919 174.592 177.268 174.36 176.519C174.136 175.763 174.024 174.944 174.024 174.06ZM176.112 173.825V174.06C176.112 174.667 176.172 175.236 176.292 175.767C176.419 176.298 176.613 176.766 176.875 177.171C177.137 177.575 177.471 177.893 177.875 178.125C178.279 178.349 178.762 178.462 179.323 178.462C180.012 178.462 180.577 178.316 181.019 178.024C181.468 177.732 181.827 177.346 182.097 176.867C182.366 176.388 182.576 175.868 182.725 175.307V172.601C182.635 172.189 182.504 171.792 182.332 171.411C182.168 171.021 181.951 170.677 181.681 170.378C181.419 170.071 181.093 169.827 180.704 169.648C180.322 169.468 179.87 169.378 179.346 169.378C178.777 169.378 178.286 169.498 177.875 169.738C177.471 169.97 177.137 170.291 176.875 170.703C176.613 171.107 176.419 171.579 176.292 172.118C176.172 172.649 176.112 173.218 176.112 173.825ZM194.101 167.851V180H192.012V167.851H194.101ZM191.855 164.629C191.855 164.292 191.956 164.007 192.158 163.775C192.368 163.543 192.675 163.427 193.079 163.427C193.476 163.427 193.779 163.543 193.988 163.775C194.205 164.007 194.314 164.292 194.314 164.629C194.314 164.951 194.205 165.228 193.988 165.46C193.779 165.684 193.476 165.796 193.079 165.796C192.675 165.796 192.368 165.684 192.158 165.46C191.956 165.228 191.855 164.951 191.855 164.629ZM201.832 167.851V169.446H195.263V167.851H201.832ZM197.487 164.898H199.564V176.991C199.564 177.403 199.627 177.713 199.755 177.923C199.882 178.132 200.047 178.271 200.249 178.338C200.451 178.406 200.668 178.439 200.9 178.439C201.072 178.439 201.252 178.424 201.439 178.394C201.634 178.357 201.779 178.327 201.877 178.305L201.888 180C201.723 180.052 201.506 180.101 201.237 180.146C200.975 180.198 200.657 180.225 200.282 180.225C199.773 180.225 199.306 180.124 198.879 179.921C198.452 179.719 198.112 179.382 197.857 178.911C197.61 178.432 197.487 177.788 197.487 176.98V164.898ZM213.679 167.851V169.446H207.11V167.851H213.679ZM209.334 164.898H211.411V176.991C211.411 177.403 211.474 177.713 211.602 177.923C211.729 178.132 211.894 178.271 212.096 178.338C212.298 178.406 212.515 178.439 212.747 178.439C212.919 178.439 213.099 178.424 213.286 178.394C213.481 178.357 213.626 178.327 213.724 178.305L213.735 180C213.57 180.052 213.353 180.101 213.084 180.146C212.822 180.198 212.504 180.225 212.129 180.225C211.62 180.225 211.153 180.124 210.726 179.921C210.299 179.719 209.959 179.382 209.704 178.911C209.457 178.432 209.334 177.788 209.334 176.98V164.898ZM214.651 174.06V173.802C214.651 172.926 214.778 172.114 215.033 171.366C215.287 170.61 215.654 169.955 216.133 169.401C216.612 168.839 217.192 168.405 217.873 168.098C218.554 167.784 219.318 167.627 220.164 167.627C221.017 167.627 221.784 167.784 222.466 168.098C223.154 168.405 223.738 168.839 224.217 169.401C224.704 169.955 225.074 170.61 225.329 171.366C225.583 172.114 225.71 172.926 225.71 173.802V174.06C225.71 174.936 225.583 175.748 225.329 176.497C225.074 177.245 224.704 177.9 224.217 178.462C223.738 179.016 223.158 179.45 222.477 179.764C221.803 180.071 221.04 180.225 220.186 180.225C219.333 180.225 218.566 180.071 217.884 179.764C217.203 179.45 216.619 179.016 216.133 178.462C215.654 177.9 215.287 177.245 215.033 176.497C214.778 175.748 214.651 174.936 214.651 174.06ZM216.728 173.802V174.06C216.728 174.667 216.799 175.239 216.941 175.778C217.084 176.31 217.297 176.781 217.581 177.193C217.873 177.605 218.236 177.93 218.67 178.17C219.105 178.402 219.61 178.518 220.186 178.518C220.755 178.518 221.253 178.402 221.68 178.17C222.114 177.93 222.473 177.605 222.757 177.193C223.042 176.781 223.255 176.31 223.397 175.778C223.547 175.239 223.622 174.667 223.622 174.06V173.802C223.622 173.203 223.547 172.638 223.397 172.107C223.255 171.568 223.038 171.092 222.746 170.681C222.462 170.262 222.102 169.932 221.668 169.693C221.242 169.453 220.74 169.333 220.164 169.333C219.595 169.333 219.093 169.453 218.659 169.693C218.233 169.932 217.873 170.262 217.581 170.681C217.297 171.092 217.084 171.568 216.941 172.107C216.799 172.638 216.728 173.203 216.728 173.802ZM237.726 167.851V169.446H231.157V167.851H237.726ZM233.381 164.898H235.458V176.991C235.458 177.403 235.521 177.713 235.649 177.923C235.776 178.132 235.941 178.271 236.143 178.338C236.345 178.406 236.562 178.439 236.794 178.439C236.966 178.439 237.146 178.424 237.333 178.394C237.527 178.357 237.673 178.327 237.771 178.305L237.782 180C237.617 180.052 237.4 180.101 237.131 180.146C236.869 180.198 236.551 180.225 236.176 180.225C235.667 180.225 235.2 180.124 234.773 179.921C234.346 179.719 234.006 179.382 233.751 178.911C233.504 178.432 233.381 177.788 233.381 176.98V164.898ZM241.55 162.754V180H239.472V162.754H241.55ZM241.056 173.465L240.191 173.432C240.199 172.601 240.322 171.833 240.562 171.13C240.801 170.419 241.138 169.801 241.572 169.277C242.006 168.753 242.523 168.349 243.122 168.065C243.728 167.773 244.398 167.627 245.131 167.627C245.73 167.627 246.269 167.709 246.748 167.874C247.227 168.031 247.635 168.285 247.972 168.637C248.316 168.989 248.578 169.446 248.758 170.007C248.938 170.561 249.028 171.238 249.028 172.039V180H246.939V172.017C246.939 171.381 246.846 170.872 246.658 170.49C246.471 170.101 246.198 169.82 245.839 169.648C245.479 169.468 245.038 169.378 244.514 169.378C243.997 169.378 243.526 169.487 243.099 169.704C242.68 169.921 242.317 170.22 242.01 170.602C241.711 170.984 241.475 171.422 241.303 171.916C241.138 172.402 241.056 172.919 241.056 173.465ZM253.705 167.851V180H251.616V167.851H253.705ZM251.459 164.629C251.459 164.292 251.56 164.007 251.762 163.775C251.972 163.543 252.279 163.427 252.683 163.427C253.08 163.427 253.383 163.543 253.592 163.775C253.81 164.007 253.918 164.292 253.918 164.629C253.918 164.951 253.81 165.228 253.592 165.46C253.383 165.684 253.08 165.796 252.683 165.796C252.279 165.796 251.972 165.684 251.762 165.46C251.56 165.228 251.459 164.951 251.459 164.629ZM263.423 176.778C263.423 176.478 263.356 176.201 263.221 175.947C263.094 175.685 262.828 175.449 262.424 175.239C262.027 175.022 261.428 174.835 260.628 174.678C259.954 174.536 259.344 174.367 258.797 174.173C258.258 173.978 257.798 173.742 257.416 173.465C257.042 173.188 256.754 172.863 256.552 172.488C256.35 172.114 256.249 171.676 256.249 171.175C256.249 170.696 256.353 170.243 256.563 169.816C256.78 169.389 257.083 169.011 257.472 168.682C257.869 168.353 258.344 168.094 258.898 167.907C259.452 167.72 260.07 167.627 260.751 167.627C261.724 167.627 262.555 167.799 263.244 168.143C263.932 168.487 264.46 168.948 264.827 169.524C265.194 170.093 265.377 170.726 265.377 171.422H263.3C263.3 171.085 263.199 170.759 262.997 170.445C262.802 170.123 262.514 169.857 262.132 169.648C261.758 169.438 261.297 169.333 260.751 169.333C260.175 169.333 259.707 169.423 259.348 169.603C258.996 169.775 258.737 169.996 258.573 170.265C258.416 170.535 258.337 170.819 258.337 171.119C258.337 171.343 258.374 171.545 258.449 171.725C258.532 171.897 258.674 172.058 258.876 172.208C259.078 172.35 259.363 172.485 259.729 172.612C260.096 172.739 260.564 172.866 261.133 172.994C262.128 173.218 262.948 173.488 263.592 173.802C264.235 174.116 264.715 174.502 265.029 174.959C265.343 175.415 265.501 175.969 265.501 176.62C265.501 177.152 265.388 177.638 265.164 178.08C264.947 178.522 264.628 178.903 264.209 179.225C263.798 179.54 263.304 179.787 262.727 179.966C262.158 180.138 261.518 180.225 260.807 180.225C259.737 180.225 258.831 180.034 258.09 179.652C257.349 179.27 256.788 178.776 256.406 178.17C256.024 177.564 255.833 176.924 255.833 176.25H257.922C257.952 176.819 258.116 177.272 258.416 177.608C258.715 177.938 259.082 178.174 259.516 178.316C259.95 178.451 260.381 178.518 260.807 178.518C261.376 178.518 261.851 178.443 262.233 178.293C262.622 178.144 262.918 177.938 263.12 177.676C263.322 177.414 263.423 177.114 263.423 176.778ZM274.81 162.754V180H272.722V162.754H274.81ZM279.712 167.851V180H277.623V167.851H279.712ZM277.466 164.629C277.466 164.292 277.567 164.007 277.769 163.775C277.979 163.543 278.286 163.427 278.69 163.427C279.087 163.427 279.39 163.543 279.599 163.775C279.817 164.007 279.925 164.292 279.925 164.629C279.925 164.951 279.817 165.228 279.599 165.46C279.39 165.684 279.087 165.796 278.69 165.796C278.286 165.796 277.979 165.684 277.769 165.46C277.567 165.228 277.466 164.951 277.466 164.629ZM289.43 176.778C289.43 176.478 289.363 176.201 289.228 175.947C289.101 175.685 288.835 175.449 288.431 175.239C288.034 175.022 287.435 174.835 286.634 174.678C285.961 174.536 285.351 174.367 284.804 174.173C284.265 173.978 283.805 173.742 283.423 173.465C283.049 173.188 282.761 172.863 282.559 172.488C282.357 172.114 282.256 171.676 282.256 171.175C282.256 170.696 282.36 170.243 282.57 169.816C282.787 169.389 283.09 169.011 283.479 168.682C283.876 168.353 284.351 168.094 284.905 167.907C285.459 167.72 286.077 167.627 286.758 167.627C287.731 167.627 288.562 167.799 289.251 168.143C289.939 168.487 290.467 168.948 290.834 169.524C291.201 170.093 291.384 170.726 291.384 171.422H289.307C289.307 171.085 289.206 170.759 289.004 170.445C288.809 170.123 288.521 169.857 288.139 169.648C287.765 169.438 287.304 169.333 286.758 169.333C286.182 169.333 285.714 169.423 285.354 169.603C285.003 169.775 284.744 169.996 284.58 170.265C284.423 170.535 284.344 170.819 284.344 171.119C284.344 171.343 284.381 171.545 284.456 171.725C284.539 171.897 284.681 172.058 284.883 172.208C285.085 172.35 285.369 172.485 285.736 172.612C286.103 172.739 286.571 172.866 287.14 172.994C288.135 173.218 288.955 173.488 289.599 173.802C290.242 174.116 290.722 174.502 291.036 174.959C291.35 175.415 291.507 175.969 291.507 176.62C291.507 177.152 291.395 177.638 291.171 178.08C290.954 178.522 290.635 178.903 290.216 179.225C289.805 179.54 289.311 179.787 288.734 179.966C288.165 180.138 287.525 180.225 286.814 180.225C285.744 180.225 284.838 180.034 284.097 179.652C283.356 179.27 282.794 178.776 282.413 178.17C282.031 177.564 281.84 176.924 281.84 176.25H283.929C283.958 176.819 284.123 177.272 284.423 177.608C284.722 177.938 285.089 178.174 285.523 178.316C285.957 178.451 286.387 178.518 286.814 178.518C287.383 178.518 287.858 178.443 288.24 178.293C288.629 178.144 288.925 177.938 289.127 177.676C289.329 177.414 289.43 177.114 289.43 176.778ZM298.632 167.851V169.446H292.064V167.851H298.632ZM294.287 164.898H296.364V176.991C296.364 177.403 296.428 177.713 296.555 177.923C296.682 178.132 296.847 178.271 297.049 178.338C297.251 178.406 297.468 178.439 297.7 178.439C297.873 178.439 298.052 178.424 298.239 178.394C298.434 178.357 298.58 178.327 298.677 178.305L298.689 180C298.524 180.052 298.307 180.101 298.037 180.146C297.775 180.198 297.457 180.225 297.083 180.225C296.574 180.225 296.106 180.124 295.679 179.921C295.253 179.719 294.912 179.382 294.658 178.911C294.411 178.432 294.287 177.788 294.287 176.98V164.898Z" fill="#334054"/>
<defs>
<filter id="filter0_d_10662_13963" x="52.7422" y="2.15234" width="97.6016" height="81.8931" filterUnits="userSpaceOnUse" color-interpolation-filters="sRGB">
<feFlood flood-opacity="0" result="BackgroundImageFix"/>
<feColorMatrix in="SourceAlpha" type="matrix" values="0 0 0 0 0 0 0 0 0 0 0 0 0 0 0 0 0 0 127 0" result="hardAlpha"/>
<feOffset dx="12.1875" dy="12.1875"/>
<feGaussianBlur stdDeviation="6.09375"/>
<feComposite in2="hardAlpha" operator="out"/>
<feColorMatrix type="matrix" values="0 0 0 0 0 0 0 0 0 0 0 0 0 0 0 0 0 0 0.02 0"/>
<feBlend mode="normal" in2="BackgroundImageFix" result="effect1_dropShadow_10662_13963"/>
<feBlend mode="normal" in="SourceGraphic" in2="effect1_dropShadow_10662_13963" result="shape"/>
</filter>
<clipPath id="clip0_10662_13963">
<rect width="207.187" height="117" fill="white" transform="translate(51.4062)"/>
</clipPath>
</defs>
</svg>
