<svg width="208" height="163" viewBox="0 0 208 163" fill="none" xmlns="http://www.w3.org/2000/svg">
<g style="mix-blend-mode:multiply">
<circle cx="8.5" cy="26.8203" r="5.5" fill="#EDEEF1"/>
</g>
<g style="mix-blend-mode:multiply">
<circle cx="11.5" cy="135.82" r="11.5" fill="#EDEEF1"/>
</g>
<g style="mix-blend-mode:multiply">
<circle cx="197" cy="52.3203" r="11" fill="#EDEEF1"/>
</g>
<g clip-path="url(#clip0_9702_68750)">
<path d="M96.1212 28.8203C104.5 28.8197 112.71 31.1781 119.811 35.6255C126.912 40.0729 132.617 46.4297 136.274 53.9683C139.931 61.5069 141.392 69.9228 140.489 78.2529C139.587 86.5829 136.357 94.4906 131.17 101.071L150.343 120.244C151.3 121.234 151.829 122.56 151.817 123.937C151.805 125.313 151.253 126.63 150.279 127.603C149.306 128.577 147.989 129.129 146.613 129.141C145.236 129.153 143.91 128.624 142.92 127.667L123.747 108.494C118.158 112.899 111.597 115.903 104.611 117.256C97.6245 118.609 90.4161 118.272 83.5869 116.273C76.7577 114.273 70.5055 110.67 65.3522 105.763C60.1988 100.856 56.2937 94.7876 53.9625 88.0644C51.6314 81.3412 50.9418 74.158 51.9514 67.114C52.961 60.0701 55.6404 53.3698 59.7662 47.572C63.8919 41.7743 69.3444 37.0472 75.6686 33.7852C81.9927 30.5232 89.0053 28.8209 96.1212 28.8203ZM96.1212 39.3203C87.0707 39.3203 78.3909 42.9156 71.9912 49.3153C65.5915 55.715 61.9962 64.3948 61.9962 73.4453C61.9962 82.4958 65.5915 91.1757 71.9912 97.5753C78.3909 103.975 87.0707 107.57 96.1212 107.57C105.172 107.57 113.852 103.975 120.251 97.5753C126.651 91.1757 130.246 82.4958 130.246 73.4453C130.246 64.3948 126.651 55.715 120.251 49.3153C113.852 42.9156 105.172 39.3203 96.1212 39.3203ZM96.1212 44.5703C103.779 44.5703 111.124 47.6125 116.539 53.0276C121.954 58.4427 124.996 65.7872 124.996 73.4453C124.996 81.1034 121.954 88.4479 116.539 93.863C111.124 99.2781 103.779 102.32 96.1212 102.32C88.4631 102.32 81.1186 99.2781 75.7035 93.863C70.2884 88.4479 67.2462 81.1034 67.2462 73.4453C67.2462 65.7872 70.2884 58.4427 75.7035 53.0276C81.1186 47.6125 88.4631 44.5703 96.1212 44.5703Z" fill="#B1B0B2"/>
</g>
<g style="mix-blend-mode:multiply">
<circle cx="158.5" cy="20.8203" r="4.5" fill="#EDEEF1"/>
</g>
<defs>
<clipPath id="clip0_9702_68750">
<rect width="126" height="126" fill="white" transform="translate(41 18.3203)"/>
</clipPath>
</defs>
</svg>
