<svg width="23" height="23" viewBox="0 0 23 23" fill="none" xmlns="http://www.w3.org/2000/svg">
<g clip-path="url(#clip0_9960_1712)">
<path d="M23 15.5661C23 12.712 21.3626 10.1648 18.9103 8.92578C18.8342 14.3982 14.3974 18.8349 8.92505 18.9111C10.1641 21.3633 12.7113 23.0007 15.5654 23.0007C16.9036 23.0007 18.2049 22.6443 19.3483 21.9672L22.9675 22.9683L21.9664 19.3491C22.6436 18.2057 23 16.9043 23 15.5661Z" fill="white"/>
<path d="M17.5645 8.78223C17.5645 3.93961 13.6248 0 8.78223 0C3.93961 0 0 3.93961 0 8.78223C0 10.3605 0.42009 11.8971 1.2178 13.2462L0.0322876 17.532L4.31829 16.3466C5.66735 17.1444 7.20399 17.5645 8.78223 17.5645C13.6248 17.5645 17.5645 13.6248 17.5645 8.78223ZM7.43457 6.73828H6.08691C6.08691 5.252 7.29594 4.04297 8.78223 4.04297C10.2685 4.04297 11.4775 5.252 11.4775 6.73828C11.4775 7.49265 11.1582 8.21772 10.601 8.7273L9.45605 9.77525V10.8262H8.1084V9.18179L9.69119 7.73306C9.97406 7.47423 10.1299 7.121 10.1299 6.73828C10.1299 5.99514 9.52537 5.39062 8.78223 5.39062C8.03909 5.39062 7.43457 5.99514 7.43457 6.73828ZM8.1084 12.1738H9.45605V13.5215H8.1084V12.1738Z" fill="white"/>
</g>
<defs>
<clipPath id="clip0_9960_1712">
<rect width="23" height="23" fill="white"/>
</clipPath>
</defs>
</svg>
