<svg width="4" height="7" viewBox="0 0 4 7" fill="none" xmlns="http://www.w3.org/2000/svg">
<path d="M0.11 3.55036C0.0396538 3.4801 8.7526e-05 3.38478 0 3.28536V3.09536C0.001152 2.99615 0.040558 2.90122 0.11 2.83036L2.68 0.265356C2.72694 0.218028 2.79084 0.191406 2.8575 0.191406C2.92416 0.191406 2.98806 0.218028 3.035 0.265356L3.39 0.620356C3.43703 0.666438 3.46354 0.729511 3.46354 0.795356C3.46354 0.861201 3.43703 0.924274 3.39 0.970356L1.165 3.19036L3.39 5.41036C3.43733 5.4573 3.46395 5.5212 3.46395 5.58786C3.46395 5.65452 3.43733 5.71841 3.39 5.76536L3.035 6.11536C2.98806 6.16268 2.92416 6.18931 2.8575 6.18931C2.79084 6.18931 2.72694 6.16268 2.68 6.11536L0.11 3.55036Z" fill="#BCBCBC"/>
</svg>
