<svg width="20" height="20" viewBox="0 0 20 20" fill="none" xmlns="http://www.w3.org/2000/svg">
<path d="M14 16.0004C14 18.2096 12.2091 20.0005 9.99991 20.0005C7.79076 20.0005 6 18.2096 6 16.0004C6 13.7911 7.79076 12 9.99991 12C12.2091 12 14 13.7911 14 16.0004Z" fill="#65107F"/>
<path d="M10.8032 18.0012C9.28571 18.0012 11.4286 18.0012 10.8032 18.0012C8.57143 18.0012 8.57143 18.0012 9.28571 18.0012H7.85714C7.42857 18.0012 8.57143 18.0012 9.28571 18.0012C8.57143 18.0012 9.51746 18.0012 10.8032 18.0012ZM2.85714 6.42899C2.85714 2.82876 6 0 10 0C14 0 17.1429 2.82876 17.1429 6.42899V10.2864L19.5714 13.6295C19.8571 13.8866 20 14.2724 20 14.6581C20 15.6867 19 16.5868 17.8571 16.5868H2.14286C1 16.7154 0 15.8153 0 14.7867C0 14.4009 0.142857 14.0152 0.428571 13.758L2.85714 10.415V6.42899Z" fill="#CFB5D7"/>
</svg>
