<svg width="25" height="21" viewBox="0 0 25 21" fill="none" xmlns="http://www.w3.org/2000/svg">
<path d="M21.75 2.5H16.5V2.25C16.5 1.285 15.715 0.5 14.75 0.5H14.5H10.5H10.25C9.285 0.5 8.5 1.285 8.5 2.25V2.5H3.25C1.733 2.5 0.5 3.733 0.5 5.25V17.75C0.5 19.267 1.733 20.5 3.25 20.5H21.75C23.267 20.5 24.5 19.267 24.5 17.75V5.25C24.5 3.733 23.267 2.5 21.75 2.5ZM14.501 4.5H10.5V2.5H14.5L14.501 4.5ZM8 7.5C9.378 7.5 10.5 8.622 10.5 10C10.5 11.378 9.378 12.5 8 12.5C6.622 12.5 5.5 11.378 5.5 10C5.5 8.622 6.622 7.5 8 7.5ZM12.5 16.75C12.5 17.164 12.164 17.5 11.75 17.5H4.25C3.836 17.5 3.5 17.164 3.5 16.75V16.25C3.5 14.733 4.733 13.5 6.25 13.5H9.75C11.267 13.5 12.5 14.733 12.5 16.25V16.75ZM20.75 17.5H15.25C14.836 17.5 14.5 17.164 14.5 16.75C14.5 16.336 14.836 16 15.25 16H20.75C21.164 16 21.5 16.336 21.5 16.75C21.5 17.164 21.164 17.5 20.75 17.5ZM20.75 13.5H15.25C14.836 13.5 14.5 13.164 14.5 12.75C14.5 12.336 14.836 12 15.25 12H20.75C21.164 12 21.5 12.336 21.5 12.75C21.5 13.164 21.164 13.5 20.75 13.5ZM20.75 9.5H15.25C14.836 9.5 14.5 9.164 14.5 8.75C14.5 8.336 14.836 8 15.25 8H20.75C21.164 8 21.5 8.336 21.5 8.75C21.5 9.164 21.164 9.5 20.75 9.5Z" fill="white"/>
</svg>
